<svg width="14" height="14" viewBox="0 0 14 14" fill="none" xmlns="http://www.w3.org/2000/svg">
<path fill-rule="evenodd" clip-rule="evenodd" d="M7.5004 2.5C7.5004 2.22386 7.27654 2 7.0004 2C6.72425 2 6.5004 2.22386 6.5004 2.5V6.5004H2.5C2.22386 6.5004 2 6.72425 2 7.0004C2 7.27654 2.22386 7.5004 2.5 7.5004H6.5004V11.5007C6.5004 11.7769 6.72425 12.0007 7.0004 12.0007C7.27654 12.0007 7.5004 11.7769 7.5004 11.5007V7.5004H11.5007C11.7769 7.5004 12.0007 7.27654 12.0007 7.0004C12.0007 6.72425 11.7769 6.5004 11.5007 6.5004H7.5004V2.5Z" fill="currentColor"/>
</svg>
