<svg width="14" height="14" viewBox="0 0 14 14" fill="none" xmlns="http://www.w3.org/2000/svg">
<path d="M11.7156 6.68797L7.25673 11.1469C6.7105 11.6931 5.96964 12 5.19714 12C4.42463 12 3.68376 11.6931 3.13751 11.1469C2.59127 10.6006 2.28439 9.85978 2.28439 9.08727C2.28439 8.31471 2.59127 7.57388 3.13751 7.02761L7.59636 2.56875C7.96054 2.20459 8.45447 2 8.96942 2C9.48446 2 9.97837 2.20459 10.3425 2.56875C10.7067 2.93292 10.9113 3.42683 10.9113 3.94183C10.9113 4.45683 10.7067 4.95074 10.3425 5.31491L5.87882 9.77376C5.69674 9.95588 5.44978 10.0581 5.19228 10.0581C4.93478 10.0581 4.68782 9.95588 4.50574 9.77376C4.32366 9.59165 4.22136 9.34474 4.22136 9.08727C4.22136 8.8297 4.32366 8.58279 4.50574 8.40068L8.62495 4.28631" stroke="currentColor" stroke-linecap="round" stroke-linejoin="round" fill="none" />
</svg>
