<svg width="14" height="14" viewBox="0 0 14 14" fill="none" xmlns="http://www.w3.org/2000/svg">
<path fill-rule="evenodd" clip-rule="evenodd" d="M3.66667 5C4.00102 5 4.31325 4.8329 4.49872 4.5547L5.38675 3.22265C5.47948 3.08355 5.6356 3 5.80278 3H8.19722C8.3644 3 8.52052 3.08355 8.61325 3.22265L9.50128 4.5547C9.68675 4.8329 9.99898 5 10.3333 5H11.5C11.7761 5 12 5.22386 12 5.5V10.5C12 10.7761 11.7761 11 11.5 11H2.5C2.22386 11 2 10.7761 2 10.5V5.5C2 5.22386 2.22386 5 2.5 5H3.66667ZM5.80278 2C5.30125 2 4.8329 2.25065 4.5547 2.66795L3.66667 4H2.5C1.67157 4 1 4.67157 1 5.5V10.5C1 11.3284 1.67157 12 2.5 12H11.5C12.3284 12 13 11.3284 13 10.5V5.5C13 4.67157 12.3284 4 11.5 4H10.3333L9.4453 2.66795C9.1671 2.25065 8.69875 2 8.19722 2H5.80278ZM8.5 7.5C8.5 8.32843 7.82843 9 7 9C6.17157 9 5.5 8.32843 5.5 7.5C5.5 6.67157 6.17157 6 7 6C7.82843 6 8.5 6.67157 8.5 7.5ZM9.5 7.5C9.5 8.88071 8.38071 10 7 10C5.61929 10 4.5 8.88071 4.5 7.5C4.5 6.11929 5.61929 5 7 5C8.38071 5 9.5 6.11929 9.5 7.5Z" fill="currentColor"/>
</svg>
