<svg width="16" height="16" viewBox="0 0 16 16" fill="none" xmlns="http://www.w3.org/2000/svg">
<path d="M5.5 7C5.77614 7 6 6.77614 6 6.5C6 6.22385 5.77614 6 5.5 6C5.22385 6 5 6.22385 5 6.5C5 6.77614 5.22385 7 5.5 7Z" fill="currentColor"/>
<path d="M2.78947 8.62291C3.05108 8.62291 3.26316 8.41083 3.26316 8.1492C3.26316 7.88762 3.05108 7.67554 2.78947 7.67554C2.52787 7.67554 2.31579 7.88762 2.31579 8.1492C2.31579 8.41083 2.52787 8.62291 2.78947 8.62291Z" fill="currentColor"/>
<path fill-rule="evenodd" clip-rule="evenodd" d="M13.0081 2.99129C12.3349 2.64261 11.5065 2.90566 11.1579 3.57883L9.82337 6.06889C9.81522 6.08465 9.80815 6.1007 9.80221 6.11694C9.05626 6.09136 8.31731 6.42088 7.81893 7.00414C7.23175 7.69132 6.50938 8.44125 5.89207 8.82418C5.01196 9.37018 4.50282 9.57429 4.051 9.64415C3.78674 9.68501 3.57226 9.85516 3.46778 10.0758C3.35864 10.3062 3.36687 10.6082 3.57895 10.8419C4.04001 11.35 4.72047 12.1748 6.3692 13.2234C7.51116 13.9496 8.53501 14.3513 9.086 14.5374C9.50828 14.6801 9.9596 14.517 10.2019 14.1541C10.5083 13.6952 11.0462 12.83 11.5082 11.7772C11.8499 10.9983 12.1444 10.1956 12.4261 9.39418C12.6638 8.71814 12.5568 8.00508 12.1955 7.4414L13.5942 4.84425C13.9449 4.1708 13.6823 3.34052 13.0081 2.99129ZM11.597 6.81321L12.866 4.46498C13.007 4.19435 12.9014 3.86069 12.6305 3.72034C12.3599 3.58022 12.0271 3.68594 11.8869 3.95646L10.6286 6.29941C10.6771 6.31996 10.7251 6.3423 10.7728 6.36645L11.3014 6.63448C11.4055 6.68727 11.5042 6.74712 11.597 6.81321ZM11.6515 9.12184C11.5931 9.28826 11.5314 9.46125 11.4674 9.63753L8.1356 7.88906C8.24291 7.76944 8.34579 7.65146 8.44318 7.53753C8.9391 6.95713 9.75301 6.76999 10.4015 7.09877L10.9301 7.36681C11.5814 7.697 11.8894 8.44536 11.6515 9.12184ZM6.32489 9.52188C6.73 9.27058 7.15274 8.90332 7.54943 8.50858L7.55474 8.51142L11.1782 10.413C11.0388 10.7754 10.8955 11.1299 10.7563 11.4473C10.3201 12.4415 9.80948 13.2632 9.51908 13.6981C9.47764 13.7601 9.41044 13.7804 9.34874 13.7596C9.1064 13.6777 8.76017 13.549 8.3475 13.3622C8.53906 13.1602 9.23101 12.1671 9.49729 11.7135C9.61236 11.5175 9.54586 11.2686 9.34874 11.1577C9.15169 11.0468 8.89861 11.1157 8.7836 11.3118C8.56956 11.6764 7.89402 12.6985 7.5735 12.9786C7.32901 12.8466 7.07278 12.6978 6.80982 12.5305C6.596 12.3946 6.39577 12.2627 6.20833 12.1352C6.30586 12.0696 6.53912 11.8633 6.65393 11.7649C6.82659 11.6168 6.84374 11.3608 6.69223 11.1931C6.54072 11.0255 6.27793 11.0096 6.10527 11.1577C5.85115 11.3756 5.54734 11.5844 5.4758 11.6123C4.82209 11.1212 4.60254 10.7253 4.31909 10.4312C4.86824 10.3291 5.42555 10.0798 6.32489 9.52188Z" fill="currentColor"/>
</svg>
