<svg width="14" height="14" viewBox="0 0 14 14" fill="none" xmlns="http://www.w3.org/2000/svg">
<path fill-rule="evenodd" clip-rule="evenodd" d="M8.53212 2.66663H2.625C2.27983 2.66663 2 2.94645 2 3.29163C2 3.6368 2.27983 3.91663 2.625 3.91663H8.53212C8.35912 3.76393 8.25 3.54052 8.25 3.29163C8.25 3.04273 8.35912 2.81933 8.53212 2.66663ZM9.63458 3.91663C9.80758 3.76393 9.91667 3.54052 9.91667 3.29163C9.91667 3.04273 9.80758 2.81933 9.63458 2.66663H11.375C11.7202 2.66663 12 2.94645 12 3.29163C12 3.6368 11.7202 3.91663 11.375 3.91663H9.63458Z" fill="currentColor"/>
<path fill-rule="evenodd" clip-rule="evenodd" d="M4.36545 6.20837H2.625C2.27983 6.20837 2 6.4882 2 6.83337C2 7.17855 2.27983 7.45837 2.625 7.45837H4.36545C4.19245 7.30567 4.08333 7.08227 4.08333 6.83337C4.08333 6.58448 4.19245 6.36107 4.36545 6.20837ZM5.46788 7.45837C5.64088 7.30567 5.75 7.08227 5.75 6.83337C5.75 6.58448 5.64088 6.36107 5.46788 6.20837H11.375C11.7202 6.20837 12 6.4882 12 6.83337C12 7.17855 11.7202 7.45837 11.375 7.45837H5.46788Z" fill="currentColor"/>
<path fill-rule="evenodd" clip-rule="evenodd" d="M8.53212 9.75H2.625C2.27983 9.75 2 10.0298 2 10.375C2 10.7202 2.27983 11 2.625 11H8.53212C8.35912 10.8473 8.25 10.6239 8.25 10.375C8.25 10.1261 8.35912 9.90267 8.53212 9.75ZM9.63458 11C9.80758 10.8473 9.91667 10.6239 9.91667 10.375C9.91667 10.1261 9.80758 9.90267 9.63458 9.75H11.375C11.7202 9.75 12 10.0298 12 10.375C12 10.7202 11.7202 11 11.375 11H9.63458Z" fill="currentColor"/>
<path fill-rule="evenodd" clip-rule="evenodd" d="M9.08332 2.45833C8.62309 2.45833 8.24999 2.83143 8.24999 3.29167C8.24999 3.7519 8.62309 4.125 9.08332 4.125C9.54357 4.125 9.91666 3.7519 9.91666 3.29167C9.91666 2.83143 9.54357 2.45833 9.08332 2.45833ZM7.41666 3.29167C7.41666 2.37119 8.16285 1.625 9.08332 1.625C10.0038 1.625 10.75 2.37119 10.75 3.29167C10.75 4.21214 10.0038 4.95833 9.08332 4.95833C8.16285 4.95833 7.41666 4.21214 7.41666 3.29167Z" fill="currentColor"/>
<path fill-rule="evenodd" clip-rule="evenodd" d="M9.08332 8.70837C8.16285 8.70837 7.41666 9.45454 7.41666 10.375C7.41666 11.2955 8.16285 12.0417 9.08332 12.0417C10.0038 12.0417 10.75 11.2955 10.75 10.375C10.75 9.45454 10.0038 8.70837 9.08332 8.70837ZM8.24999 10.375C8.24999 9.91479 8.62309 9.54171 9.08332 9.54171C9.54357 9.54171 9.91666 9.91479 9.91666 10.375C9.91666 10.8353 9.54357 11.2084 9.08332 11.2084C8.62309 11.2084 8.24999 10.8353 8.24999 10.375Z" fill="currentColor"/>
<path fill-rule="evenodd" clip-rule="evenodd" d="M4.91667 5.99996C4.45643 5.99996 4.08333 6.37306 4.08333 6.83329C4.08333 7.29353 4.45643 7.66663 4.91667 7.66663C5.3769 7.66663 5.75 7.29353 5.75 6.83329C5.75 6.37306 5.3769 5.99996 4.91667 5.99996ZM3.25 6.83329C3.25 5.91282 3.99619 5.16663 4.91667 5.16663C5.83714 5.16663 6.58333 5.91282 6.58333 6.83329C6.58333 7.75377 5.83714 8.49996 4.91667 8.49996C3.99619 8.49996 3.25 7.75377 3.25 6.83329Z" fill="currentColor"/>
</svg>
