<svg width="14" height="14" viewBox="0 0 14 14" fill="none" xmlns="http://www.w3.org/2000/svg">
<path d="M2.59999 1.8C2.38781 1.8 2.18433 1.88429 2.0343 2.03431C1.88427 2.18434 1.79999 2.38783 1.79999 2.6V3.4C1.79999 3.61217 1.88427 3.81566 2.0343 3.96569C2.18433 4.11571 2.38781 4.2 2.59999 4.2H2.99999V10.4C2.99999 10.8243 3.16856 11.2313 3.46862 11.5314C3.76867 11.8314 4.17564 12 4.59999 12H9.39999C9.82433 12 10.2313 11.8314 10.5314 11.5314C10.8314 11.2313 11 10.8243 11 10.4V4.2H11.4C11.6122 4.2 11.8156 4.11571 11.9657 3.96569C12.1157 3.81566 12.2 3.61217 12.2 3.4V2.6C12.2 2.38783 12.1157 2.18434 11.9657 2.03431C11.8156 1.88429 11.6122 1.8 11.4 1.8H8.59999C8.59999 1.58783 8.5157 1.38434 8.36567 1.23431C8.21564 1.08429 8.01216 1 7.79999 1H6.19999C5.98781 1 5.78433 1.08429 5.6343 1.23431C5.48427 1.38434 5.39999 1.58783 5.39999 1.8H2.59999ZM4.99999 5C5.10607 5 5.20782 5.04214 5.28283 5.11716C5.35784 5.19217 5.39999 5.29391 5.39999 5.4V10C5.39999 10.1061 5.35784 10.2078 5.28283 10.2828C5.20782 10.3579 5.10607 10.4 4.99999 10.4C4.8939 10.4 4.79216 10.3579 4.71714 10.2828C4.64213 10.2078 4.59999 10.1061 4.59999 10V5.4C4.59999 5.29391 4.64213 5.19217 4.71714 5.11716C4.79216 5.04214 4.8939 5 4.99999 5ZM6.99999 5C7.10607 5 7.20782 5.04214 7.28283 5.11716C7.35785 5.19217 7.39999 5.29391 7.39999 5.4V10C7.39999 10.1061 7.35785 10.2078 7.28283 10.2828C7.20782 10.3579 7.10607 10.4 6.99999 10.4C6.8939 10.4 6.79216 10.3579 6.71714 10.2828C6.64213 10.2078 6.59999 10.1061 6.59999 10V5.4C6.59999 5.29391 6.64213 5.19217 6.71714 5.11716C6.79216 5.04214 6.8939 5 6.99999 5ZM9.39999 5.4V10C9.39999 10.1061 9.35784 10.2078 9.28283 10.2828C9.20782 10.3579 9.10607 10.4 8.99999 10.4C8.8939 10.4 8.79216 10.3579 8.71714 10.2828C8.64213 10.2078 8.59999 10.1061 8.59999 10V5.4C8.59999 5.29391 8.64213 5.19217 8.71714 5.11716C8.79216 5.04214 8.8939 5 8.99999 5C9.10607 5 9.20782 5.04214 9.28283 5.11716C9.35784 5.19217 9.39999 5.29391 9.39999 5.4Z" fill="currentColor" />
</svg>
