<svg width="14" height="14" viewBox="0 0 14 14" fill="none" xmlns="http://www.w3.org/2000/svg">
<path d="M3.4998 4.2C3.4998 3.92386 3.27595 3.7 2.9998 3.7H2.5998C2.52024 3.7 2.44393 3.66839 2.38767 3.61213C2.33141 3.55587 2.2998 3.47957 2.2998 3.4V2.6C2.2998 2.52043 2.33141 2.44413 2.38767 2.38787C2.44393 2.33161 2.52024 2.3 2.5998 2.3H5.3998C5.67595 2.3 5.8998 2.07614 5.8998 1.8C5.8998 1.72044 5.93141 1.64413 5.98767 1.58787C6.04393 1.53161 6.12024 1.5 6.1998 1.5H7.7998C7.87937 1.5 7.95568 1.53161 8.01194 1.58787C8.0682 1.64413 8.0998 1.72044 8.0998 1.8C8.0998 2.07614 8.32366 2.3 8.5998 2.3H11.3998C11.4794 2.3 11.5557 2.33161 11.6119 2.38787C11.6682 2.44413 11.6998 2.52044 11.6998 2.6V3.4C11.6998 3.47956 11.6682 3.55587 11.6119 3.61213C11.5557 3.66839 11.4794 3.7 11.3998 3.7H10.9998C10.7237 3.7 10.4998 3.92386 10.4998 4.2V10.4C10.4998 10.6917 10.3839 10.9715 10.1776 11.1778C9.97133 11.3841 9.69154 11.5 9.3998 11.5H4.5998C4.30807 11.5 4.02828 11.3841 3.82199 11.1778C3.6157 10.9715 3.4998 10.6917 3.4998 10.4V4.2Z" stroke="currentColor" fill="none" stroke-linejoin="round"/>
<line x1="6" y1="5" x2="6" y2="10" stroke="currentColor" fill="none" />
<line x1="8" y1="5" x2="8" y2="10" stroke="currentColor" fill="none" />
</svg>
