<svg width="14" height="14" viewBox="0 0 14 14" fill="none" xmlns="http://www.w3.org/2000/svg">
<path fill-rule="evenodd" clip-rule="evenodd" d="M7.60001 5.7C7.32387 5.7 7.10001 5.47614 7.10001 5.2V2H3.20001V12H10.8V5.7H7.60001ZM11.8 5.2V5.7V12.4C11.8 12.7314 11.5314 13 11.2 13H2.80001C2.46864 13 2.20001 12.7314 2.20001 12.4V1.6C2.20001 1.26863 2.46864 1 2.80001 1H7.10001H7.60001L8.10001 1.5L11.3 4.7L11.8 5.2ZM9.8858 4.7L8.10001 2.91421V4.7H9.8858ZM4.70001 7.59984C4.70002 7.32369 4.92389 7.09984 5.20003 7.09985L8.80003 7.09998C9.07617 7.09999 9.30002 7.32385 9.30001 7.59999C9.3 7.87613 9.07614 8.09999 8.79999 8.09998L5.2 8.09985C4.92385 8.09984 4.7 7.87598 4.70001 7.59984ZM5.20004 9.49985C4.9239 9.49984 4.70003 9.72369 4.70001 9.99983C4.7 10.276 4.92384 10.4998 5.19999 10.4999L7.59999 10.5C7.87613 10.5 8.1 10.2761 8.10001 10C8.10003 9.72386 7.87618 9.49999 7.60004 9.49998L5.20004 9.49985Z" fill="currentColor"/>
</svg>
