<svg width="14" height="14" viewBox="0 0 14 14" fill="none" xmlns="http://www.w3.org/2000/svg">
<path fill-rule="evenodd" clip-rule="evenodd" d="M5.83496 5.39453H5C5.05371 4.33984 5.75684 3.5 7.12891 3.5C8.35938 3.5 9.1992 4.26172 9.1992 5.26758C9.1992 6.03418 8.80371 6.57617 8.17871 6.95215C7.55859 7.31836 7.38281 7.5918 7.38281 8.10449V8.42188H6.52832V7.97266C6.52344 7.32812 6.83594 6.88867 7.50488 6.48828C8.07129 6.1416 8.29102 5.83398 8.29102 5.31152C8.29102 4.70605 7.82227 4.26172 7.09473 4.26172C6.35742 4.26172 5.88867 4.69629 5.83496 5.39453ZM7.55664 9.9434C7.55664 10.2559 7.31738 10.5 7 10.5C6.6875 10.5 6.44336 10.2559 6.44336 9.9434C6.44336 9.626 6.6875 9.3867 7 9.3867C7.31738 9.3867 7.55664 9.626 7.55664 9.9434Z" fill="currentColor"/>
<circle cx="7" cy="7" r="5.5" stroke="currentColor" stroke-linecap="round" fill="none"/>
</svg>
