<svg width="14" height="14" viewBox="0 0 14 14" fill="none" xmlns="http://www.w3.org/2000/svg">
<path fill-rule="evenodd" clip-rule="evenodd" d="M9.35297 10.2353C9.51544 10.2353 9.64708 10.3669 9.64708 10.5294V11.7059C9.64708 11.8684 9.51544 12 9.35297 12H8.1765C8.01406 12 7.88238 11.8684 7.88238 11.7059V10.5294C7.88238 10.3669 8.01406 10.2353 8.1765 10.2353H9.35297ZM5.82355 10.2353C5.98599 10.2353 6.11767 10.3669 6.11767 10.5294V11.7059C6.11767 11.8684 5.98599 12 5.82355 12H4.64708C4.48465 12 4.35297 11.8684 4.35297 11.7059V10.5294C4.35297 10.3669 4.48465 10.2353 4.64708 10.2353H5.82355ZM8.1765 6.11765H9.35297C9.51544 6.11765 9.64708 6.24933 9.64708 6.41177V7.58824C9.64708 7.75067 9.51544 7.88235 9.35297 7.88235H8.1765C8.01406 7.88235 7.88238 7.75067 7.88238 7.58824V6.41177C7.88238 6.24933 8.01406 6.11765 8.1765 6.11765ZM4.64708 6.11765H5.82355C5.98599 6.11765 6.11767 6.24933 6.11767 6.41177V7.58824C6.11767 7.75067 5.98599 7.88235 5.82355 7.88235H4.64708C4.48465 7.88235 4.35297 7.75067 4.35297 7.58824V6.41177C4.35297 6.24933 4.48465 6.11765 4.64708 6.11765ZM9.35297 2C9.51544 2 9.64708 2.13168 9.64708 2.29412V3.47059C9.64708 3.63302 9.51544 3.76471 9.35297 3.76471H8.1765C8.01406 3.76471 7.88238 3.63302 7.88238 3.47059V2.29412C7.88238 2.13168 8.01406 2 8.1765 2H9.35297ZM5.82355 2C5.98599 2 6.11767 2.13168 6.11767 2.29412V3.47059C6.11767 3.63302 5.98599 3.76471 5.82355 3.76471H4.64708C4.48465 3.76471 4.35297 3.63302 4.35297 3.47059V2.29412C4.35297 2.13168 4.48465 2 4.64708 2H5.82355Z" fill="currentColor" />
</svg>
