<svg width="16" height="16" viewBox="0 0 16 16" fill="none" xmlns="http://www.w3.org/2000/svg">
<mask id="mask0_6179_3260" style="mask-type:alpha" maskUnits="userSpaceOnUse" x="2" y="0" width="12" height="16">
<path d="M2.82725 0H10.3003C10.4097 0 10.5148 0.0448 10.592 0.1256L13.877 3.5296C13.9558 3.6104 14 3.7216 14 3.8368V15.1352C14 15.6128 13.6295 16 13.1728 16H2.82725C2.3705 16 2 15.6128 2 15.1352V0.864C2 0.3872 2.3705 0 2.82725 0Z" fill="white"/>
</mask>
<g mask="url(#mask0_6179_3260)">
<path d="M2.82725 0H10.3003C10.4097 0 10.5148 0.0448 10.592 0.1256L13.877 3.5296C13.9558 3.6104 14 3.7216 14 3.8368V15.1352C14 15.6128 13.6295 16 13.1728 16H2.82725C2.3705 16 2 15.6128 2 15.1352V0.864C2 0.3872 2.3705 0 2.82725 0Z" fill="#0BB645"/>
<path fill-rule="evenodd" clip-rule="evenodd" d="M10.4727 0H13.9902V3.44625H11.2999C10.8424 3.44625 10.4727 3.08325 10.4727 2.6355V0Z" fill="#55D376"/>
<path fill-rule="evenodd" clip-rule="evenodd" d="M5 7.5C5.41421 7.5 5.75 7.16421 5.75 6.75C5.75 6.33579 5.41421 6 5 6C4.58579 6 4.25 6.33579 4.25 6.75C4.25 7.16421 4.58579 7.5 5 7.5ZM12.1403 7.21177C12.1266 7.18103 12.1066 7.1535 12.0816 7.13095C12.0329 7.08708 11.9682 7.06395 11.9026 7.06647C11.8371 7.06899 11.7751 7.09697 11.7299 7.14445L8.62487 10.4295L7.20512 8.7712C7.1657 8.72588 7.11701 8.68955 7.06235 8.66465C7.00769 8.63975 6.94832 8.62687 6.88825 8.62687C6.82818 8.62687 6.76881 8.63975 6.71415 8.66465C6.65949 8.68955 6.6108 8.72588 6.57138 8.7712L3.89762 11.895C3.87287 11.925 3.85938 11.9617 3.85938 12C3.85957 12.0214 3.86399 12.0426 3.87239 12.0624C3.88079 12.0822 3.893 12.1001 3.90832 12.1151C3.92364 12.1302 3.94178 12.142 3.96169 12.1501C3.9816 12.1581 4.0029 12.1621 4.02438 12.162H11.9541C12.0681 12.162 12.1611 12.0712 12.1611 11.9595V7.30945C12.1611 7.27579 12.154 7.24252 12.1403 7.21177Z" fill="white"/>
</g>
</svg>
