<svg width="20" height="20" viewBox="0 0 20 20" fill="none" xmlns="http://www.w3.org/2000/svg">
<mask id="mask0_6179_3477" style="mask-type:alpha" maskUnits="userSpaceOnUse" x="4" y="2" width="12" height="16">
<path d="M4.82759 2H12.5075C12.6166 2 12.7213 2.04502 12.7988 2.12526L15.8775 5.31335C15.9559 5.39456 16 5.50515 16 5.62052V17.1351C16 17.6128 15.6295 18 15.1724 18H4.82759C4.37052 18 4 17.6128 4 17.1351V2.86486C4 2.38721 4.37052 2 4.82759 2Z" fill="white"/>
</mask>
<g mask="url(#mask0_6179_3477)">
<path d="M4.82759 2H12.5075C12.6166 2 12.7213 2.04502 12.7988 2.12526L15.8775 5.31335C15.9559 5.39456 16 5.50515 16 5.62052V17.1351C16 17.6128 15.6295 18 15.1724 18H4.82759C4.37052 18 4 17.6128 4 17.1351V2.86486C4 2.38721 4.37052 2 4.82759 2Z" fill="#1E6FFF"/>
<path fill-rule="evenodd" clip-rule="evenodd" d="M12.6777 2H15.9881V5.24324H13.5053C13.0483 5.24324 12.6777 4.88023 12.6777 4.43243V2Z" fill="#6AA1FF"/>
</g>
<path d="M12.9167 8H7.08333C6.6231 8 6.25 8.33579 6.25 8.75C6.25 9.16421 6.6231 9.5 7.08333 9.5H12.9167C13.3769 9.5 13.75 9.16421 13.75 8.75C13.75 8.33579 13.3769 8 12.9167 8Z" fill="white"/>
<path d="M10.625 11H7.125C6.64175 11 6.25 11.3358 6.25 11.75C6.25 12.1642 6.64175 12.5 7.125 12.5H10.625C11.1082 12.5 11.5 12.1642 11.5 11.75C11.5 11.3358 11.1082 11 10.625 11Z" fill="white"/>
</svg>
