<svg width="16" height="16" viewBox="0 0 16 16" fill="none" xmlns="http://www.w3.org/2000/svg">
<path d="M3 8C3 11.3137 5.68633 14 9 14C12.3137 14 15 11.3137 15 8H9H3Z" fill="#D35230"/>
<path d="M9 2V8H15C15 4.68633 12.3137 2 9 2Z" fill="#FF8F6B"/>
<path d="M9 2C5.68633 2 3 4.68633 3 8H9V2Z" fill="#ED6C47"/>
<path opacity="0.05" d="M8.66602 5.56025C8.66602 4.88259 8.11668 4.33325 7.43902 4.33325H3.92402C3.13835 5.34792 2.66602 6.61725 2.66602 7.99992C2.66602 9.70525 3.38102 11.2409 4.52302 12.3333H7.43868C8.11668 12.3333 8.66602 11.7839 8.66602 11.1063V5.56025Z" fill="black"/>
<path opacity="0.07" d="M7.40368 4.44434H3.84102C3.10602 5.44034 2.66602 6.66734 2.66602 8C2.66602 9.539 3.25035 10.938 4.20302 12H7.40368C7.97835 12 8.44402 11.5343 8.44402 10.9597V5.48467C8.44368 4.91034 7.97802 4.44434 7.40368 4.44434Z" fill="black"/>
<path opacity="0.09" d="M7.36802 4.55566H3.75802C3.07202 5.531 2.66602 6.717 2.66602 8C2.66602 9.38266 3.13835 10.652 3.92402 11.6667H7.36802C7.83935 11.6667 8.22135 11.2847 8.22135 10.8133V5.409C8.22168 4.93766 7.83935 4.55566 7.36802 4.55566Z" fill="black"/>
<path d="M7.33398 11.3334H2.00065C1.63232 11.3334 1.33398 11.0351 1.33398 10.6667V5.33341C1.33398 4.96508 1.63232 4.66675 2.00065 4.66675H7.33398C7.70232 4.66675 8.00065 4.96508 8.00065 5.33341V10.6667C8.00065 11.0351 7.70232 11.3334 7.33398 11.3334Z" fill="url(#paint0_linear_6179_4982)"/>
<path d="M4.89165 6.3374H3.33398V9.67074H4.00865V8.49707H4.76732C5.39265 8.49707 5.89965 7.99007 5.89965 7.36474V7.3454C5.89965 6.78874 5.44832 6.3374 4.89165 6.3374ZM5.19065 7.45274C5.19065 7.73907 4.95832 7.9714 4.67198 7.9714H4.00865V6.86307H4.67198C4.95832 6.86307 5.19065 7.0954 5.19065 7.38174V7.45274Z" fill="white"/>
<defs>
<linearGradient id="paint0_linear_6179_4982" x1="1.52932" y1="4.86208" x2="7.59065" y2="10.9234" gradientUnits="userSpaceOnUse">
<stop stop-color="#CA4E2A"/>
<stop offset="1" stop-color="#B63016"/>
</linearGradient>
</defs>
</svg>
