<svg width="20" height="20" viewBox="0 0 20 20" fill="none" xmlns="http://www.w3.org/2000/svg">
<path d="M16.9997 6.5H11.5V10H16.9997V6.5Z" fill="#21A366"/>
<path d="M16.9993 10H6V16.2222C6 16.6519 6.30764 17 6.68746 17H16.3119C16.6917 17 16.9993 16.6519 16.9993 16.2222V10Z" fill="#185C37"/>
<path d="M16.9997 10H11.5V13.5H16.9997V10Z" fill="#107C42"/>
<path d="M16.3122 3H11.5V6.5H16.9997V3.77778C16.9997 3.34806 16.692 3 16.3122 3Z" fill="#33C481"/>
<path d="M6.68746 3H11.4997V6.5H6V3.77778C6 3.34806 6.30764 3 6.68746 3Z" fill="#21A366"/>
<path d="M11.4997 6.5H6V10H11.4997V6.5Z" fill="#3FA071"/>
<path opacity="0.05" d="M9.43967 6H6V14H9.43967C10.1173 14 10.6667 13.4507 10.6667 12.773V7.227C10.6667 6.54933 10.1173 6 9.43967 6Z" fill="black"/>
<path opacity="0.07" d="M9.40433 13.6667H6V6.11108H9.40433C9.979 6.11108 10.4447 6.57675 10.4447 7.15142V12.6264C10.4443 13.2011 9.97867 13.6667 9.40433 13.6667Z" fill="black"/>
<path opacity="0.09" d="M9.36867 13.3334H6V6.22241H9.36867C9.84 6.22241 10.222 6.60441 10.222 7.07575V12.4801C10.2223 12.9514 9.84 13.3334 9.36867 13.3334Z" fill="black"/>
<path d="M9.3 13.6667H3.7C3.31325 13.6667 3 13.3535 3 12.9667V7.36675C3 6.98 3.31325 6.66675 3.7 6.66675H9.3C9.68675 6.66675 10 6.98 10 7.36675V12.9667C10 13.3535 9.68675 13.6667 9.3 13.6667Z" fill="url(#paint0_linear_6179_4968)"/>
<path d="M5.09421 8.5H5.89417L6.54325 9.8139L7.22921 8.5H7.97653L6.94692 10.25L8 12H7.21178L6.50436 10.6245L5.79996 12H5L6.07052 10.2437L5.09421 8.5Z" fill="white"/>
<defs>
<linearGradient id="paint0_linear_6179_4968" x1="3.25375" y1="6.9205" x2="9.66925" y2="13.336" gradientUnits="userSpaceOnUse">
<stop stop-color="#18884F"/>
<stop offset="1" stop-color="#0B6731"/>
</linearGradient>
</defs>
</svg>
