<svg width="20" height="20" viewBox="0 0 20 20" fill="none" xmlns="http://www.w3.org/2000/svg">
<path d="M16.1113 3H6.48633C6.10648 3 5.79883 3.34794 5.79883 3.77752V6.5H16.7988V3.77752C16.7988 3.34794 16.4912 3 16.1113 3Z" fill="url(#paint0_linear_6179_4958)"/>
<path d="M5.79883 13.5V16.2175C5.79883 16.6498 6.10648 17 6.48633 17H16.1113C16.4912 17 16.7988 16.6498 16.7988 16.2175V13.5H5.79883Z" fill="url(#paint1_linear_6179_4958)"/>
<path d="M5.79883 6.5H16.7988V10H5.79883V6.5Z" fill="url(#paint2_linear_6179_4958)"/>
<path d="M5.79883 10H16.7988V13.5H5.79883V10Z" fill="url(#paint3_linear_6179_4958)"/>
<path opacity="0.05" d="M9.41065 6.45007H5.79883V14.8505H9.41065C10.1222 14.8505 10.6991 14.2737 10.6991 13.5621V7.73849C10.6991 7.0269 10.1222 6.45007 9.41065 6.45007Z" fill="black"/>
<path opacity="0.07" d="M9.37355 14.5005H5.79883V6.56665H9.37355C9.97698 6.56665 10.466 7.05562 10.466 7.65905V13.4081C10.4656 14.0115 9.97663 14.5005 9.37355 14.5005Z" fill="black"/>
<path opacity="0.09" d="M9.3361 14.1505H5.79883V6.68359H9.3361C9.83103 6.68359 10.2321 7.08471 10.2321 7.57964V13.2545C10.2325 13.7494 9.83103 14.1505 9.3361 14.1505Z" fill="black"/>
<path d="M9.30031 13.8005H3.70003C3.31327 13.8005 3 13.4872 3 13.1005V7.50021C3 7.11344 3.31327 6.80017 3.70003 6.80017H9.30031C9.68708 6.80017 10.0003 7.11344 10.0003 7.50021V13.1005C10.0003 13.4872 9.68708 13.8005 9.30031 13.8005Z" fill="url(#paint4_linear_6179_4958)"/>
<path d="M8.04227 8.55029L7.50115 11.0928L6.90157 8.55029H6.13608L5.5176 11.1716L4.96002 8.55029H4.27539L5.09583 12.0505H5.91907L6.51865 9.35918L7.11858 12.0505H7.90647L8.72691 8.55029H8.04227Z" fill="white"/>
<defs>
<linearGradient id="paint0_linear_6179_4958" x1="11.2988" y1="6.48562" x2="11.2988" y2="3.17494" gradientUnits="userSpaceOnUse">
<stop stop-color="#42A3F2"/>
<stop offset="1" stop-color="#42A4EB"/>
</linearGradient>
<linearGradient id="paint1_linear_6179_4958" x1="11.2988" y1="17" x2="11.2988" y2="13.5" gradientUnits="userSpaceOnUse">
<stop stop-color="#11408A"/>
<stop offset="1" stop-color="#103F8F"/>
</linearGradient>
<linearGradient id="paint2_linear_6179_4958" x1="11.2988" y1="-5.34409" x2="11.2988" y2="-5.36781" gradientUnits="userSpaceOnUse">
<stop stop-color="#3079D6"/>
<stop offset="1" stop-color="#297CD2"/>
</linearGradient>
<linearGradient id="paint3_linear_6179_4958" x1="5.79883" y1="11.75" x2="16.7988" y2="11.75" gradientUnits="userSpaceOnUse">
<stop stop-color="#1D59B3"/>
<stop offset="1" stop-color="#195BBC"/>
</linearGradient>
<linearGradient id="paint4_linear_6179_4958" x1="3.26041" y1="7.06058" x2="9.82323" y2="13.6231" gradientUnits="userSpaceOnUse">
<stop stop-color="#256AC2"/>
<stop offset="1" stop-color="#1247AD"/>
</linearGradient>
</defs>
</svg>
