<svg width="20" height="20" viewBox="0 0 20 20" fill="none" xmlns="http://www.w3.org/2000/svg">
<path d="M5 10C5 13.3137 7.68633 16 11 16C14.3137 16 17 13.3137 17 10H11H5Z" fill="#D35230"/>
<path d="M11 4V10H17C17 6.68633 14.3137 4 11 4Z" fill="#FF8F6B"/>
<path d="M11 4C7.68633 4 5 6.68633 5 10H11V4Z" fill="#ED6C47"/>
<path opacity="0.05" d="M10.666 7.56025C10.666 6.88259 10.1167 6.33325 9.43902 6.33325H5.92402C5.13835 7.34792 4.66602 8.61725 4.66602 9.99992C4.66602 11.7053 5.38102 13.2409 6.52302 14.3333H9.43868C10.1167 14.3333 10.666 13.7839 10.666 13.1063V7.56025Z" fill="black"/>
<path opacity="0.07" d="M9.40368 6.44434H5.84102C5.10602 7.44034 4.66602 8.66734 4.66602 10C4.66602 11.539 5.25035 12.938 6.20302 14H9.40368C9.97835 14 10.444 13.5343 10.444 12.9597V7.48467C10.4437 6.91034 9.97802 6.44434 9.40368 6.44434Z" fill="black"/>
<path opacity="0.09" d="M9.36802 6.55566H5.75802C5.07202 7.531 4.66602 8.717 4.66602 10C4.66602 11.3827 5.13835 12.652 5.92402 13.6667H9.36802C9.83935 13.6667 10.2213 13.2847 10.2213 12.8133V7.409C10.2217 6.93766 9.83935 6.55566 9.36802 6.55566Z" fill="black"/>
<path d="M9.33398 13.3334H4.00065C3.63232 13.3334 3.33398 13.0351 3.33398 12.6667V7.33341C3.33398 6.96508 3.63232 6.66675 4.00065 6.66675H9.33398C9.70232 6.66675 10.0007 6.96508 10.0007 7.33341V12.6667C10.0007 13.0351 9.70232 13.3334 9.33398 13.3334Z" fill="url(#paint0_linear_6179_4982)"/>
<path d="M6.89165 8.3374H5.33398V11.6707H6.00865V10.4971H6.76732C7.39265 10.4971 7.89965 9.99007 7.89965 9.36474V9.3454C7.89965 8.78874 7.44832 8.3374 6.89165 8.3374ZM7.19065 9.45274C7.19065 9.73907 6.95832 9.9714 6.67198 9.9714H6.00865V8.86307H6.67198C6.95832 8.86307 7.19065 9.0954 7.19065 9.38174V9.45274Z" fill="white"/>
<defs>
<linearGradient id="paint0_linear_6179_4982" x1="3.52932" y1="6.86208" x2="9.59065" y2="12.9234" gradientUnits="userSpaceOnUse">
<stop stop-color="#CA4E2A"/>
<stop offset="1" stop-color="#B63016"/>
</linearGradient>
</defs>
</svg>
