<svg width="20" height="20" viewBox="0 0 20 20" fill="none" xmlns="http://www.w3.org/2000/svg">
<mask id="mask0_6179_4948" style="mask-type:alpha" maskUnits="userSpaceOnUse" x="4" y="2" width="12" height="16">
<path d="M4.82759 2H12.5075C12.6166 2 12.7213 2.04502 12.7988 2.12526L15.8775 5.31335C15.9559 5.39456 16 5.50515 16 5.62052V17.1351C16 17.6128 15.6295 18 15.1724 18H4.82759C4.37052 18 4 17.6128 4 17.1351V2.86486C4 2.38721 4.37052 2 4.82759 2Z" fill="white"/>
</mask>
<g mask="url(#mask0_6179_4948)">
<path d="M4.82759 2H12.5075C12.6166 2 12.7213 2.04502 12.7988 2.12526L15.8775 5.31335C15.9559 5.39456 16 5.50515 16 5.62052V17.1351C16 17.6128 15.6295 18 15.1724 18H4.82759C4.37052 18 4 17.6128 4 17.1351V2.86486C4 2.38721 4.37052 2 4.82759 2Z" fill="#F53F3F"/>
<path fill-rule="evenodd" clip-rule="evenodd" d="M12.6777 2H15.9881V5.24324H13.5053C13.0483 5.24324 12.6777 4.88023 12.6777 4.43243V2Z" fill="#F98981"/>
</g>
<path d="M12.8328 10.7364C12.3651 10.7449 11.8996 10.8024 11.4439 10.9079C10.8823 10.3484 10.4165 9.70036 10.0651 8.98977C10.4468 7.65595 10.4639 6.74656 10.1792 6.31592C10.1156 6.22268 10.031 6.14572 9.93221 6.09126C9.8334 6.0368 9.72315 6.00637 9.6104 6.00245C9.4698 5.99071 9.32892 6.0214 9.20595 6.09056C9.08299 6.15972 8.98359 6.26417 8.9206 6.39041C8.52254 7.10271 9.09751 8.51645 9.3652 9.08831C9.06388 10.1095 8.67122 11.1016 8.192 12.0524C6.06285 13.0347 6 13.6314 6 13.8463C6.00776 14.1117 6.15286 14.3491 6.37555 14.4608C6.47259 14.5272 6.5887 14.5599 6.70609 14.554C7.27485 14.554 7.90103 13.8836 8.59083 12.5738C9.43659 12.1874 10.3173 11.8832 11.2212 11.6644C11.6713 12.0811 12.2493 12.334 12.8615 12.3829C13.2371 12.3829 13.9998 12.3829 13.9998 11.5659C14.006 11.2888 13.8524 10.7604 12.8328 10.7356V10.7364ZM6.74567 13.8711H6.67739C6.86438 13.5623 7.14294 13.3202 7.47426 13.1759C7.31842 13.4844 7.06115 13.7299 6.74567 13.8711ZM9.46762 6.74579C9.49686 6.73462 9.52918 6.73462 9.55841 6.74579H9.62669C9.74405 7.14734 9.74405 7.57408 9.62669 7.97563C9.44953 7.59149 9.39403 7.16236 9.46762 6.74579ZM10.6067 11.3804C10.0946 11.51 9.59022 11.6698 9.09751 11.8607V11.811H9.05173C9.2977 11.2803 9.52039 10.7387 9.71903 10.1886V10.1389C9.97508 10.5603 10.2699 10.9513 10.6005 11.3067H10.5384L10.6067 11.3812V11.3804ZM12.884 11.6947C12.6519 11.685 12.4237 11.6307 12.2121 11.5348C12.3991 11.4952 12.5907 11.4782 12.7816 11.4859C13.22 11.4859 13.3116 11.6023 13.3116 11.676C13.1709 11.7176 13.0223 11.724 12.8786 11.6947H12.884Z" fill="white"/>
</svg>
