<svg width="20" height="20" viewBox="0 0 20 20" fill="none" xmlns="http://www.w3.org/2000/svg">
<rect x="4" y="2" width="12" height="16" rx="1" fill="#863EEA"/>
<path d="M11 12.8333C11 13.662 10.104 14.3333 9 14.3333C7.896 14.3333 7 13.662 7 12.8333C7 12.0045 7.896 11.3333 9 11.3333C10.104 11.3333 11 12.0045 11 12.8333Z" fill="white"/>
<path fill-rule="evenodd" clip-rule="evenodd" d="M11 8V13H10V8H11Z" fill="white"/>
<path d="M10 6.87998C10.0001 6.72592 10.0535 6.57665 10.1513 6.45754C10.249 6.33843 10.3849 6.25685 10.536 6.22665L12.536 5.82665C12.6327 5.80733 12.7324 5.80969 12.8281 5.83356C12.9238 5.85744 13.0129 5.90223 13.0892 5.96472C13.1655 6.02721 13.2269 6.10584 13.2691 6.19494C13.3113 6.28404 13.3333 6.38139 13.3333 6.47998V7.66665L10 8.33332V6.87998Z" fill="white"/>
</svg>
