<svg width="20" height="20" viewBox="0 0 20 20" fill="none" xmlns="http://www.w3.org/2000/svg">
<mask id="mask0_6179_3260" style="mask-type:alpha" maskUnits="userSpaceOnUse" x="4" y="2" width="12" height="16">
<path d="M4.82725 2H12.3003C12.4097 2 12.5148 2.0448 12.592 2.1256L15.877 5.5296C15.9558 5.6104 16 5.7216 16 5.8368V17.1352C16 17.6128 15.6295 18 15.1728 18H4.82725C4.3705 18 4 17.6128 4 17.1352V2.864C4 2.3872 4.3705 2 4.82725 2Z" fill="white"/>
</mask>
<g mask="url(#mask0_6179_3260)">
<path d="M4.82725 2H12.3003C12.4097 2 12.5148 2.0448 12.592 2.1256L15.877 5.5296C15.9558 5.6104 16 5.7216 16 5.8368V17.1352C16 17.6128 15.6295 18 15.1728 18H4.82725C4.3705 18 4 17.6128 4 17.1352V2.864C4 2.3872 4.3705 2 4.82725 2Z" fill="#0BB645"/>
<path fill-rule="evenodd" clip-rule="evenodd" d="M12.4727 2H15.9902V5.44625H13.2999C12.8424 5.44625 12.4727 5.08325 12.4727 4.6355V2Z" fill="#55D376"/>
<path fill-rule="evenodd" clip-rule="evenodd" d="M7 9.5C7.41421 9.5 7.75 9.16421 7.75 8.75C7.75 8.33579 7.41421 8 7 8C6.58579 8 6.25 8.33579 6.25 8.75C6.25 9.16421 6.58579 9.5 7 9.5ZM14.1403 9.21177C14.1266 9.18103 14.1066 9.1535 14.0816 9.13095C14.0329 9.08708 13.9682 9.06395 13.9026 9.06647C13.8371 9.06899 13.7751 9.09697 13.7299 9.14445L10.6249 12.4295L9.20512 10.7712C9.1657 10.7259 9.11701 10.6895 9.06235 10.6646C9.00769 10.6397 8.94832 10.6269 8.88825 10.6269C8.82818 10.6269 8.76881 10.6397 8.71415 10.6646C8.65949 10.6895 8.6108 10.7259 8.57138 10.7712L5.89762 13.895C5.87287 13.925 5.85938 13.9617 5.85938 14C5.85957 14.0214 5.86399 14.0426 5.87239 14.0624C5.88079 14.0822 5.893 14.1001 5.90832 14.1151C5.92364 14.1302 5.94178 14.142 5.96169 14.1501C5.9816 14.1581 6.0029 14.1621 6.02438 14.162H13.9541C14.0681 14.162 14.1611 14.0712 14.1611 13.9595V9.30945C14.1611 9.27579 14.154 9.24252 14.1403 9.21177Z" fill="white"/>
</g>
</svg>
