<svg width="16" height="16" viewBox="0 0 16 16" fill="none" xmlns="http://www.w3.org/2000/svg">
<path d="M14.9997 4.5H9.5V8H14.9997V4.5Z" fill="#21A366"/>
<path d="M14.9993 8H4V14.2222C4 14.6519 4.30764 15 4.68746 15H14.3119C14.6917 15 14.9993 14.6519 14.9993 14.2222V8Z" fill="#185C37"/>
<path d="M14.9997 8H9.5V11.5H14.9997V8Z" fill="#107C42"/>
<path d="M14.3122 1H9.5V4.5H14.9997V1.77778C14.9997 1.34806 14.692 1 14.3122 1Z" fill="#33C481"/>
<path d="M4.68746 1H9.49966V4.5H4V1.77778C4 1.34806 4.30764 1 4.68746 1Z" fill="#21A366"/>
<path d="M9.49966 4.5H4V8H9.49966V4.5Z" fill="#3FA071"/>
<path opacity="0.05" d="M7.43967 4H4V12H7.43967C8.11733 12 8.66667 11.4507 8.66667 10.773V5.227C8.66667 4.54933 8.11733 4 7.43967 4Z" fill="black"/>
<path opacity="0.07" d="M7.40433 11.6667H4V4.11108H7.40433C7.979 4.11108 8.44467 4.57675 8.44467 5.15142V10.6264C8.44433 11.2011 7.97867 11.6667 7.40433 11.6667Z" fill="black"/>
<path opacity="0.09" d="M7.36867 11.3334H4V4.22241H7.36867C7.84 4.22241 8.222 4.60441 8.222 5.07575V10.4801C8.22233 10.9514 7.84 11.3334 7.36867 11.3334Z" fill="black"/>
<path d="M7.3 11.6667H1.7C1.31325 11.6667 1 11.3535 1 10.9667V5.36675C1 4.98 1.31325 4.66675 1.7 4.66675H7.3C7.68675 4.66675 8 4.98 8 5.36675V10.9667C8 11.3535 7.68675 11.6667 7.3 11.6667Z" fill="url(#paint0_linear_6179_4968)"/>
<path d="M3.09421 6.5H3.89417L4.54325 7.8139L5.22921 6.5H5.97653L4.94692 8.25L6 10H5.21178L4.50436 8.6245L3.79996 10H3L4.07052 8.2437L3.09421 6.5Z" fill="white"/>
<defs>
<linearGradient id="paint0_linear_6179_4968" x1="1.25375" y1="4.9205" x2="7.66925" y2="11.336" gradientUnits="userSpaceOnUse">
<stop stop-color="#18884F"/>
<stop offset="1" stop-color="#0B6731"/>
</linearGradient>
</defs>
</svg>
