<svg width="16" height="16" viewBox="0 0 16 16" fill="none" xmlns="http://www.w3.org/2000/svg">
<mask id="mask0_6179_4948" style="mask-type:alpha" maskUnits="userSpaceOnUse" x="2" y="0" width="12" height="16">
<path d="M2.82759 0H10.5075C10.6166 0 10.7213 0.0450191 10.7988 0.125263L13.8775 3.31335C13.9559 3.39456 14 3.50515 14 3.62052V15.1351C14 15.6128 13.6295 16 13.1724 16H2.82759C2.37052 16 2 15.6128 2 15.1351V0.864865C2 0.387213 2.37052 0 2.82759 0Z" fill="white"/>
</mask>
<g mask="url(#mask0_6179_4948)">
<path d="M2.82759 0H10.5075C10.6166 0 10.7213 0.0450191 10.7988 0.125263L13.8775 3.31335C13.9559 3.39456 14 3.50515 14 3.62052V15.1351C14 15.6128 13.6295 16 13.1724 16H2.82759C2.37052 16 2 15.6128 2 15.1351V0.864865C2 0.387213 2.37052 0 2.82759 0Z" fill="#F53F3F"/>
<path fill-rule="evenodd" clip-rule="evenodd" d="M10.6777 0H13.9881V3.24324H11.5053C11.0483 3.24324 10.6777 2.88023 10.6777 2.43243V0Z" fill="#F98981"/>
</g>
<path d="M10.8328 8.73639C10.3651 8.74491 9.89963 8.80238 9.44392 8.90787C8.88233 8.34836 8.41651 7.70036 8.06509 6.98977C8.44685 5.65595 8.46392 4.74656 8.17915 4.31592C8.11562 4.22268 8.03102 4.14572 7.93221 4.09126C7.8334 4.0368 7.72315 4.00637 7.6104 4.00245C7.4698 3.99071 7.32892 4.0214 7.20595 4.09056C7.08299 4.15972 6.98359 4.26417 6.9206 4.39041C6.52254 5.10271 7.09751 6.51645 7.3652 7.08831C7.06388 8.10954 6.67122 9.10156 6.192 10.0524C4.06285 11.0347 4 11.6314 4 11.8463C4.00776 12.1117 4.15286 12.3491 4.37555 12.4608C4.47259 12.5272 4.5887 12.5599 4.70609 12.554C5.27485 12.554 5.90103 11.8836 6.59083 10.5738C7.43659 10.1874 8.31727 9.88321 9.22122 9.6644C9.67126 10.0811 10.2493 10.334 10.8615 10.3829C11.2371 10.3829 11.9998 10.3829 11.9998 9.56586C12.006 9.28885 11.8524 8.76044 10.8328 8.73561V8.73639ZM4.74567 11.8711H4.67739C4.86438 11.5623 5.14294 11.3202 5.47426 11.1759C5.31842 11.4844 5.06115 11.7299 4.74567 11.8711ZM7.46762 4.74579C7.49686 4.73462 7.52918 4.73462 7.55841 4.74579H7.62669C7.74405 5.14734 7.74405 5.57408 7.62669 5.97563C7.44953 5.59149 7.39403 5.16236 7.46762 4.74579ZM8.60669 9.38041C8.09458 9.50999 7.59022 9.66983 7.09751 9.86071V9.81105H7.05173C7.2977 9.28031 7.52039 8.73871 7.71903 8.18858V8.13892C7.97508 8.56025 8.26994 8.95132 8.60048 9.30669H8.53841L8.60669 9.38118V9.38041ZM10.884 9.69466C10.6519 9.68498 10.4237 9.63071 10.2121 9.53482C10.3991 9.49524 10.5907 9.47817 10.7816 9.48593C11.22 9.48593 11.3116 9.60232 11.3116 9.67604C11.1709 9.71757 11.0223 9.72396 10.8786 9.69466H10.884Z" fill="white"/>
</svg>
