<svg width="16" height="16" viewBox="0 0 16 16" fill="none" xmlns="http://www.w3.org/2000/svg">
<rect x="2" width="12" height="16" rx="1" fill="#863EEA"/>
<path d="M9 10.8333C9 11.662 8.104 12.3333 7 12.3333C5.896 12.3333 5 11.662 5 10.8333C5 10.0045 5.896 9.33325 7 9.33325C8.104 9.33325 9 10.0045 9 10.8333Z" fill="white"/>
<path fill-rule="evenodd" clip-rule="evenodd" d="M9 6V11H8V6H9Z" fill="white"/>
<path d="M8 4.87998C8.00009 4.72592 8.05354 4.57665 8.15126 4.45754C8.24897 4.33843 8.38493 4.25685 8.536 4.22665L10.536 3.82665C10.6327 3.80733 10.7324 3.80969 10.8281 3.83356C10.9238 3.85744 11.0129 3.90223 11.0892 3.96472C11.1655 4.02721 11.2269 4.10584 11.2691 4.19494C11.3113 4.28404 11.3333 4.38139 11.3333 4.47998V5.66665L8 6.33332V4.87998Z" fill="white"/>
</svg>
