<svg width="16" height="16" viewBox="0 0 16 16" fill="none" xmlns="http://www.w3.org/2000/svg">
<path d="M14.1113 1H4.48633C4.10648 1 3.79883 1.34794 3.79883 1.77752V4.5H14.7988V1.77752C14.7988 1.34794 14.4912 1 14.1113 1Z" fill="url(#paint0_linear_6179_4958)"/>
<path d="M3.79883 11.5V14.2175C3.79883 14.6498 4.10648 15 4.48633 15H14.1113C14.4912 15 14.7988 14.6498 14.7988 14.2175V11.5H3.79883Z" fill="url(#paint1_linear_6179_4958)"/>
<path d="M3.79883 4.5H14.7988V8H3.79883V4.5Z" fill="url(#paint2_linear_6179_4958)"/>
<path d="M3.79883 8H14.7988V11.5H3.79883V8Z" fill="url(#paint3_linear_6179_4958)"/>
<path opacity="0.05" d="M7.41065 4.45007H3.79883V12.8505H7.41065C8.12224 12.8505 8.69907 12.2737 8.69907 11.5621V5.73849C8.69907 5.0269 8.12224 4.45007 7.41065 4.45007Z" fill="black"/>
<path opacity="0.07" d="M7.37355 12.5005H3.79883V4.56665H7.37355C7.97698 4.56665 8.46596 5.05562 8.46596 5.65905V11.4081C8.46561 12.0115 7.97663 12.5005 7.37355 12.5005Z" fill="black"/>
<path opacity="0.09" d="M7.3361 12.1505H3.79883V4.68359H7.3361C7.83103 4.68359 8.23214 5.08471 8.23214 5.57964V11.2545C8.23249 11.7494 7.83103 12.1505 7.3361 12.1505Z" fill="black"/>
<path d="M7.30031 11.8005H1.70003C1.31327 11.8005 1 11.4872 1 11.1005V5.50021C1 5.11344 1.31327 4.80017 1.70003 4.80017H7.30031C7.68708 4.80017 8.00034 5.11344 8.00034 5.50021V11.1005C8.00034 11.4872 7.68708 11.8005 7.30031 11.8005Z" fill="url(#paint4_linear_6179_4958)"/>
<path d="M6.04227 6.55029L5.50115 9.09282L4.90157 6.55029H4.13608L3.5176 9.17157L2.96002 6.55029H2.27539L3.09583 10.0505H3.91907L4.51865 7.35918L5.11858 10.0505H5.90647L6.72691 6.55029H6.04227Z" fill="white"/>
<defs>
<linearGradient id="paint0_linear_6179_4958" x1="9.29883" y1="4.48562" x2="9.29883" y2="1.17494" gradientUnits="userSpaceOnUse">
<stop stop-color="#42A3F2"/>
<stop offset="1" stop-color="#42A4EB"/>
</linearGradient>
<linearGradient id="paint1_linear_6179_4958" x1="9.29883" y1="15" x2="9.29883" y2="11.5" gradientUnits="userSpaceOnUse">
<stop stop-color="#11408A"/>
<stop offset="1" stop-color="#103F8F"/>
</linearGradient>
<linearGradient id="paint2_linear_6179_4958" x1="9.29883" y1="-7.34409" x2="9.29883" y2="-7.36781" gradientUnits="userSpaceOnUse">
<stop stop-color="#3079D6"/>
<stop offset="1" stop-color="#297CD2"/>
</linearGradient>
<linearGradient id="paint3_linear_6179_4958" x1="3.79883" y1="9.75" x2="14.7988" y2="9.75" gradientUnits="userSpaceOnUse">
<stop stop-color="#1D59B3"/>
<stop offset="1" stop-color="#195BBC"/>
</linearGradient>
<linearGradient id="paint4_linear_6179_4958" x1="1.26041" y1="5.06058" x2="7.82323" y2="11.6231" gradientUnits="userSpaceOnUse">
<stop stop-color="#256AC2"/>
<stop offset="1" stop-color="#1247AD"/>
</linearGradient>
</defs>
</svg>
