<svg width="16" height="16" viewBox="0 0 16 16" fill="none" xmlns="http://www.w3.org/2000/svg">
<mask id="mask0_6179_3477" style="mask-type:alpha" maskUnits="userSpaceOnUse" x="2" y="0" width="12" height="16">
<path d="M2.82759 0H10.5075C10.6166 0 10.7213 0.0450191 10.7988 0.125263L13.8775 3.31335C13.9559 3.39456 14 3.50515 14 3.62052V15.1351C14 15.6128 13.6295 16 13.1724 16H2.82759C2.37052 16 2 15.6128 2 15.1351V0.864865C2 0.387213 2.37052 0 2.82759 0Z" fill="white"/>
</mask>
<g mask="url(#mask0_6179_3477)">
<path d="M2.82759 0H10.5075C10.6166 0 10.7213 0.0450191 10.7988 0.125263L13.8775 3.31335C13.9559 3.39456 14 3.50515 14 3.62052V15.1351C14 15.6128 13.6295 16 13.1724 16H2.82759C2.37052 16 2 15.6128 2 15.1351V0.864865C2 0.387213 2.37052 0 2.82759 0Z" fill="#1E6FFF"/>
<path fill-rule="evenodd" clip-rule="evenodd" d="M10.6777 0H13.9881V3.24324H11.5053C11.0483 3.24324 10.6777 2.88023 10.6777 2.43243V0Z" fill="#6AA1FF"/>
</g>
<path d="M10.9167 6H5.08333C4.6231 6 4.25 6.33579 4.25 6.75C4.25 7.16421 4.6231 7.5 5.08333 7.5H10.9167C11.3769 7.5 11.75 7.16421 11.75 6.75C11.75 6.33579 11.3769 6 10.9167 6Z" fill="white"/>
<path d="M8.625 9H5.125C4.64175 9 4.25 9.33579 4.25 9.75C4.25 10.1642 4.64175 10.5 5.125 10.5H8.625C9.10825 10.5 9.5 10.1642 9.5 9.75C9.5 9.33579 9.10825 9 8.625 9Z" fill="white"/>
</svg>
