<svg width="14" height="14" viewBox="0 0 14 14" fill="none" xmlns="http://www.w3.org/2000/svg">
<path fill-rule="evenodd" clip-rule="evenodd" d="M5 3C5 3.55228 4.55228 4 4 4C3.44772 4 3 3.55228 3 3C3 2.44772 3.44772 2 4 2C4.55228 2 5 2.44772 5 3ZM4.5 4.93699C5.36261 4.71497 6 3.93192 6 3C6 1.89543 5.10457 1 4 1C2.89543 1 2 1.89543 2 3C2 3.93192 2.63739 4.71497 3.5 4.93699V6C3.5 6.82843 4.17157 7.5 5 7.5H6.5V9.06301C5.63739 9.28503 5 10.0681 5 11C5 12.1046 5.89543 13 7 13C8.10457 13 9 12.1046 9 11C9 10.0681 8.36261 9.28503 7.5 9.06301V7.5H9C9.82843 7.5 10.5 6.82843 10.5 6V4.93699C11.3626 4.71497 12 3.93192 12 3C12 1.89543 11.1046 1 10 1C8.89543 1 8 1.89543 8 3C8 3.93192 8.63739 4.71497 9.5 4.93699V6C9.5 6.27614 9.27614 6.5 9 6.5H7H5C4.72386 6.5 4.5 6.27614 4.5 6V4.93699ZM10 4C10.5523 4 11 3.55228 11 3C11 2.44772 10.5523 2 10 2C9.44772 2 9 2.44772 9 3C9 3.55228 9.44772 4 10 4ZM7 10C6.44772 10 6 10.4477 6 11C6 11.5523 6.44772 12 7 12C7.55228 12 8 11.5523 8 11C8 10.4477 7.55228 10 7 10Z" fill="currentColor" />
</svg>
