<svg width="14" height="14" viewBox="0 0 14 14" fill="none" xmlns="http://www.w3.org/2000/svg">
<path fill-rule="evenodd" clip-rule="evenodd" d="M7 1C6.26363 1 5.66667 1.59696 5.66667 2.33333C5.66667 3.06971 6.26363 3.66667 7 3.66667C7.73637 3.66667 8.33333 3.06971 8.33333 2.33333C8.33333 1.59696 7.73637 1 7 1ZM3.95554 5C3.64871 5 3.39998 5.24873 3.39998 5.55556V5.77777C3.39998 6.0846 3.64871 6.33333 3.95554 6.33333H7V11.6667H3.55556C3.24873 11.6667 3 11.9153 3 12.2223V12.4444C3 12.7513 3.24873 13 3.55556 13H7.55556H7.77777H10.4444C10.7513 13 11 12.7513 11 12.4444V12.2223C11 11.9153 10.7513 11.6667 10.4444 11.6667H8.33333V5.77777V5.55556C8.33333 5.28708 8.14289 5.06309 7.88975 5.01129C7.85357 5.00388 7.81613 5 7.77777 5H7.55556H3.95554Z" fill="currentColor"/>
</svg>
