<svg width="16" height="16" viewBox="0 0 16 16" fill="none" xmlns="http://www.w3.org/2000/svg">
<path fill-rule="evenodd" clip-rule="evenodd" d="M8 3C7.44772 3 7 3.44772 7 4C7 4.55228 7.44772 5 8 5C8.55228 5 9 4.55228 9 4C9 3.44772 8.55228 3 8 3ZM5.41667 6C5.18655 6 5 6.18655 5 6.41667V6.58333C5 6.81345 5.18655 7 5.41667 7H8V11H5.41667C5.18655 11 5 11.1865 5 11.4167V11.5833C5 11.8135 5.18655 12 5.41667 12H8.41667H8.58333H10.5833C10.8135 12 11 11.8135 11 11.5833V11.4167C11 11.1865 10.8135 11 10.5833 11H9V6.58333V6.41667C9 6.21531 8.85717 6.04732 8.66731 6.00847C8.64018 6.00291 8.6121 6 8.58333 6H8.41667H5.41667Z" fill="currentColor"/>
</svg>
