<svg width="14" height="14" viewBox="0 0 14 14" fill="none" xmlns="http://www.w3.org/2000/svg">
<path fill-rule="evenodd" clip-rule="evenodd" d="M6.25 1.75C6.25 1.33579 6.58579 1 7 1C8.18669 1 9.3467 1.35189 10.3334 2.01118C11.3201 2.67047 12.0892 3.60754 12.5433 4.7039C12.9974 5.80026 13.1162 7.00666 12.8847 8.17054C12.6532 9.3344 12.0818 10.4035 11.2426 11.2426C10.4035 12.0818 9.3344 12.6532 8.17054 12.8847C7.00666 13.1162 5.80026 12.9974 4.7039 12.5433C3.60754 12.0892 2.67047 11.3201 2.01118 10.3334C1.35189 9.3467 1 8.18669 1 7C1 6.58579 1.33579 6.25 1.75 6.25C2.16421 6.25 2.5 6.58579 2.5 7C2.5 7.89002 2.76392 8.76004 3.25839 9.5001C3.75285 10.2401 4.45566 10.8169 5.27792 11.1575C6.10019 11.4981 7.00499 11.5872 7.87791 11.4135C8.75082 11.2399 9.5526 10.8113 10.182 10.182C10.8113 9.5526 11.2399 8.75082 11.4135 7.87791C11.5872 7.00499 11.4981 6.10019 11.1575 5.27792C10.8169 4.45566 10.2401 3.75285 9.5001 3.25839C8.76005 2.76392 7.89002 2.5 7 2.5C6.58579 2.5 6.25 2.16421 6.25 1.75Z" fill="currentColor"/>
</svg>
