<svg width="16" height="16" viewBox="0 0 16 16" fill="none" xmlns="http://www.w3.org/2000/svg">
<path d="M14.5 6.54945C14.5 4.86367 13.45 3.47492 12.1148 3.32836C11.7511 2.43383 10.9569 1.85352 10.0527 1.85352H9.80844C9.06469 1.85352 8.40344 2.25508 7.98984 2.87383C7.57625 2.25508 6.915 1.85352 6.17125 1.85352H5.92656C5.0225 1.85352 4.22797 2.43383 3.86422 3.32836C2.52922 3.47523 1.47922 4.86383 1.47922 6.54945C1.47922 7.13648 1.60609 7.70289 1.84766 8.2032C1.60594 8.68742 1.47922 9.23492 1.47922 9.80242C1.47922 11.4334 2.52937 12.7766 3.86437 12.9187C4.22812 13.8129 5.0225 14.3929 5.92656 14.3929H6.17094C6.91469 14.3929 7.57594 13.9913 7.98953 13.3726C8.40312 13.9913 9.06437 14.3929 9.80812 14.3929H10.0523C10.9562 14.3929 11.7506 13.8129 12.1144 12.9187C13.4498 12.7765 14.5 11.4334 14.5 9.80227C14.5 9.23492 14.3731 8.68695 14.1314 8.20305C14.3731 7.70289 14.5 7.13633 14.5 6.54945ZM6.17094 13.4962H5.92656C5.32844 13.4962 4.80375 13.0396 4.62109 12.3605L4.52719 12.0115L4.09844 12.0343C3.14859 12.0343 2.37562 11.0332 2.37562 9.80242C2.37562 9.30711 2.50187 8.83523 2.74078 8.4382L2.87703 8.21148L2.74453 7.98242C2.50312 7.56586 2.37562 7.07039 2.37562 6.54961C2.37562 5.3518 3.04312 4.3618 3.91141 4.22914L4.55437 5.56523C4.63156 5.7257 4.79187 5.81914 4.95859 5.81914C5.02375 5.81914 5.09015 5.80477 5.15265 5.77477C5.37578 5.66742 5.46969 5.39945 5.36219 5.17648L4.66859 3.73523C4.88391 3.14023 5.37375 2.75039 5.9264 2.75039H6.17078C6.9264 2.75039 7.54109 3.48211 7.54109 4.38133V9.42336C7.46359 9.41227 7.38219 9.42148 7.30484 9.45414L5.83969 10.0691C5.61141 10.1649 5.50406 10.4276 5.59984 10.6559C5.67187 10.8274 5.83828 10.9309 6.01344 10.9309C6.0714 10.9309 6.13015 10.9198 6.18687 10.8959L7.54125 10.3274V11.8659C7.54125 12.7645 6.92656 13.4962 6.17094 13.4962ZM13.2381 8.43805C13.477 8.83492 13.6033 9.30664 13.6033 9.80227C13.6033 10.9791 12.8964 11.9462 11.9887 12.0271C11.9825 12.0095 11.9752 11.9921 11.9666 11.9749L11.3234 10.6977C11.2119 10.4765 10.9428 10.388 10.7212 10.499C10.5002 10.6105 10.4111 10.8799 10.5225 11.1012L11.1656 12.3784C11.1986 12.4437 11.2453 12.4973 11.3005 12.5377C11.0803 13.1179 10.5969 13.4963 10.0523 13.4963H9.80812C9.0525 13.4963 8.43781 12.7646 8.43781 11.8654V6.84617C8.47664 6.84013 8.51448 6.82888 8.55031 6.81273L9.68641 6.30758C9.91265 6.20711 10.0145 5.94211 9.91391 5.71602C9.81344 5.48977 9.54828 5.38711 9.32219 5.48867L8.43781 5.88195V4.38133C8.43781 3.48211 9.0525 2.75039 9.80812 2.75039H10.0523C10.6505 2.75039 11.1752 3.20695 11.3578 3.88633L11.4517 4.23539L11.8805 4.21227C12.8303 4.21227 13.6033 5.2607 13.6033 6.54961C13.6033 7.07023 13.4758 7.56586 13.2344 7.98242L13.1017 8.21148L13.2381 8.43805Z" fill="currentColor"/>
</svg>
