<svg width="14" height="14" viewBox="0 0 14 14" fill="none" xmlns="http://www.w3.org/2000/svg">
<path fill-rule="evenodd" clip-rule="evenodd" d="M11 8C11.5523 8 12 7.55228 12 7C12 6.44772 11.5523 6 11 6C10.4477 6 10 6.44772 10 7C10 7.55228 10.4477 8 11 8ZM4 7.00061C4 7.5529 3.55228 8.00061 3 8.00061C2.44772 8.00061 2 7.5529 2 7.00061C2 6.44833 2.44772 6.00061 3 6.00061C3.55228 6.00061 4 6.44833 4 7.00061ZM8.00014 7.00061C8.00014 7.5529 7.55243 8.00061 7.00014 8.00061C6.44786 8.00061 6.00014 7.5529 6.00014 7.00061C6.00014 6.44833 6.44786 6.00061 7.00014 6.00061C7.55243 6.00061 8.00014 6.44833 8.00014 7.00061Z" fill="currentColor"/>
</svg>
