<svg width="14" height="14" viewBox="0 0 14 14" fill="none" xmlns="http://www.w3.org/2000/svg">
<path d="M7.72249 4.14078L7.64415 4.63461C7.85952 4.66877 8.07219 4.55942 8.16971 4.36439L7.72249 4.14078ZM3.00736 7.10356L2.6538 6.75C2.45854 6.94526 2.45854 7.26185 2.6538 7.45711L3.00736 7.10356ZM7.25 11.3462L6.89644 11.6997C7.09171 11.895 7.40829 11.895 7.60355 11.6997L7.25 11.3462ZM10.2128 6.63106L9.9892 6.18385C9.7941 6.28136 9.6848 6.49403 9.7189 6.7094L10.2128 6.63106ZM9.3016 2.10062C9.4542 1.79537 9.861 1.72935 10.1024 1.97067L10.8095 1.26356C10.0855 0.539602 8.86504 0.737651 8.40716 1.6534L9.3016 2.10062ZM8.16971 4.36439L9.3016 2.10062L8.40716 1.6534L7.27528 3.91717L8.16971 4.36439ZM5.48223 5.33579C6.0706 4.74742 6.87897 4.51322 7.64415 4.63461L7.80083 3.64696C6.73302 3.47756 5.59947 3.80434 4.77512 4.62868L5.48223 5.33579ZM3.36091 7.45711L5.48223 5.33579L4.77512 4.62868L2.6538 6.75L3.36091 7.45711ZM7.60355 10.9926L3.36091 6.75L2.6538 7.45711L6.89644 11.6997L7.60355 10.9926ZM9.0178 8.87132L6.89644 10.9926L7.60355 11.6997L9.7249 9.57841L9.0178 8.87132ZM9.7189 6.7094C9.8403 7.47458 9.6061 8.28295 9.0178 8.87132L9.7249 9.57841C10.5492 8.75408 10.876 7.62054 10.7066 6.55272L9.7189 6.7094ZM12.2529 5.05196L9.9892 6.18385L10.4364 7.07827L12.7001 5.94639L12.2529 5.05196ZM12.3829 4.25119C12.6242 4.49251 12.5582 4.89934 12.2529 5.05196L12.7001 5.94639C13.6159 5.48851 13.814 4.26805 13.09 3.54409L12.3829 4.25119ZM10.1024 1.97067L12.3829 4.25119L13.09 3.54409L10.8095 1.26356L10.1024 1.97067Z" fill="currentColor" />
<path d="M5.12867 9.22485L2.40378 11.9497" stroke="currentColor" stroke-linecap="round" fill="none"/>
</svg>
