<svg width="16" height="16" viewBox="0 0 16 16" fill="none" xmlns="http://www.w3.org/2000/svg">
<path d="M9.85438 2.877L9.40716 2.65339L9.85438 2.877ZM11.4559 2.61711L11.8095 2.26355L11.4559 2.61711ZM8.72249 5.14077L8.64415 5.6346C8.85952 5.66876 9.07219 5.55941 9.16971 5.36438L8.72249 5.14077ZM4.00736 8.10355L3.6538 7.74999C3.45854 7.94525 3.45854 8.26184 3.6538 8.4571L4.00736 8.10355ZM8.25 12.3462L7.89644 12.6997C8.09171 12.895 8.40829 12.895 8.60355 12.6997L8.25 12.3462ZM11.2128 7.63105L10.9892 7.18384C10.7941 7.28135 10.6848 7.49402 10.7189 7.70939L11.2128 7.63105ZM13.4765 6.49916L13.2529 6.05195L13.4765 6.49916ZM13.7364 4.89763L13.3829 5.25118L13.7364 4.89763ZM10.3016 3.10061C10.4542 2.79536 10.861 2.72934 11.1024 2.97066L11.8095 2.26355C11.0855 1.53959 9.86504 1.73764 9.40716 2.65339L10.3016 3.10061ZM9.16971 5.36438L10.3016 3.10061L9.40716 2.65339L8.27528 4.91716L9.16971 5.36438ZM6.48223 6.33578C7.0706 5.74741 7.87897 5.51321 8.64415 5.6346L8.80083 4.64695C7.73302 4.47755 6.59947 4.80433 5.77512 5.62867L6.48223 6.33578ZM4.36091 8.4571L6.48223 6.33578L5.77512 5.62867L3.6538 7.74999L4.36091 8.4571ZM8.60355 11.9926L4.36091 7.74999L3.6538 8.4571L7.89644 12.6997L8.60355 11.9926ZM10.0178 9.87131L7.89644 11.9926L8.60355 12.6997L10.7249 10.5784L10.0178 9.87131ZM10.7189 7.70939C10.8403 8.47457 10.6061 9.28294 10.0178 9.87131L10.7249 10.5784C11.5492 9.75407 11.876 8.62053 11.7066 7.55271L10.7189 7.70939ZM13.2529 6.05195L10.9892 7.18384L11.4364 8.07826L13.7001 6.94638L13.2529 6.05195ZM13.3829 5.25118C13.6242 5.4925 13.5582 5.89933 13.2529 6.05195L13.7001 6.94638C14.6159 6.4885 14.814 5.26804 14.09 4.54408L13.3829 5.25118ZM11.1024 2.97066L13.3829 5.25118L14.09 4.54408L11.8095 2.26355L11.1024 2.97066Z" fill="currentColor"/>
<path d="M6.12866 10.2249L3.40377 12.9497" stroke="currentColor" stroke-linecap="round" fill="none" />
</svg>
