<svg width="97" height="97" viewBox="0 0 97 97" fill="none" xmlns="http://www.w3.org/2000/svg">
<path fill-rule="evenodd" clip-rule="evenodd" d="M76.6096 54.5235C77.7897 54.5017 78.9517 54.8176 79.9665 55.4349C80.9821 56.0528 81.8098 56.9478 82.3594 58.0188C82.7503 58.7715 82.9446 59.615 82.9243 60.4668C82.9041 61.3187 82.6701 62.1514 82.2438 62.8837C81.635 63.9438 80.7625 64.8196 79.7146 65.4196C78.6679 66.0189 77.4845 66.3209 76.2857 66.2935H66.0349C64.7636 66.2694 63.5053 66.5692 62.3716 67.1675C61.2377 67.7658 60.2627 68.6446 59.534 69.7272L59.5251 69.74C58.9614 70.5234 58.6334 71.463 58.5844 72.4408C58.5355 73.4179 58.7674 74.3872 59.2496 75.2268C59.9343 76.3933 60.9044 77.3503 62.0602 78.0024C63.2164 78.6547 64.518 78.9793 65.8332 78.9443L65.8465 78.9439L83.8934 78.9441C84.1696 78.9441 84.3934 79.1679 84.3934 79.4441C84.3934 79.7202 84.1696 79.9441 83.8934 79.9441H65.853C64.3576 79.9827 62.8796 79.6129 61.5687 78.8733C60.2561 78.1326 59.1585 77.0479 58.3859 75.7309L58.3837 75.7271C57.8043 74.7193 57.5272 73.5587 57.5857 72.3908C57.6441 71.2255 58.0341 70.1026 58.7087 69.1624C59.5277 67.9479 60.625 66.9585 61.9049 66.2831C63.1857 65.6072 64.6091 65.267 66.0491 65.2935H76.3035C77.3205 65.3176 78.3263 65.0622 79.2178 64.5517C80.1094 64.0412 80.8554 63.2938 81.3773 62.3845L81.3789 62.3818C81.7199 61.7963 81.9083 61.1282 81.9246 60.4431C81.9409 59.758 81.7844 59.0809 81.4714 58.4786L81.4702 58.4763C81.0033 57.5661 80.3023 56.8097 79.4467 56.2892C78.5914 55.7689 77.6143 55.5043 76.624 55.5234L76.6144 55.5236L55.7139 55.5235C55.4377 55.5235 55.2139 55.2997 55.2139 55.0235C55.2139 54.7474 55.4377 54.5235 55.7139 54.5235H76.6096Z" fill="#D4D6DC"/>
<path d="M56.2147 63.2606C57.6726 63.9948 57.6726 65.2534 56.2147 66.0924L35.4913 77.2101C34.6708 77.5736 33.7842 77.7612 32.8878 77.7612C31.9915 77.7612 31.1049 77.5736 30.2844 77.2101L9.45673 66.0924C7.9988 65.3583 7.9988 64.0997 9.45673 63.2606L30.1801 52.1429C31.0007 51.7795 31.8872 51.5918 32.7836 51.5918C33.68 51.5918 34.5665 51.7795 35.3871 52.1429L56.2147 63.2606Z" fill="#D3D5DA"/>
<path d="M34.3186 34.4845L56.3725 47.3018C56.1199 47.1859 55.8127 47.2124 55.5365 47.24C55.2603 47.2676 54.9964 47.3684 54.7714 47.532L32.7461 34.6943C32.9662 34.5221 33.2278 34.4119 33.5041 34.375C33.7804 34.3382 34.0615 34.3759 34.3186 34.4845Z" fill="url(#paint0_linear_3119_1478)"/>
<path d="M32.787 69.9001L10.7617 57.0099C10.538 56.8464 10.3607 56.6268 10.2474 56.3728C10.1341 56.1189 10.0889 55.8395 10.1161 55.5625L32.1414 68.4527C32.1141 68.7297 32.1594 69.0091 32.2727 69.263C32.386 69.517 32.5633 69.7366 32.787 69.9001Z" fill="#4672ED"/>
<path d="M32.1281 68.4624L10.1029 55.5722L10.082 50.4854L32.1073 63.3756L32.1281 68.4624Z" fill="url(#paint1_linear_3119_1478)"/>
<path d="M34.2925 59.5459L12.2568 46.6452L32.8346 34.6885L54.8598 47.5787L34.2925 59.5459Z" fill="#5880ED"/>
<path d="M32.1177 63.4244L10.082 50.4923C10.1226 49.7179 10.3436 48.9641 10.7272 48.2917C11.1107 47.6194 11.646 47.0474 12.2898 46.6221L34.2121 59.4763C33.5611 59.9038 33.1342 60.518 32.7502 61.1986C32.3661 61.8791 32.1493 62.6423 32.1177 63.4244Z" fill="url(#paint2_linear_3119_1478)"/>
<path d="M34.4075 20.6562L56.4327 33.5883C56.1802 33.4725 55.9016 33.426 55.6254 33.4536C55.3492 33.4812 55.0852 33.582 54.8602 33.7457L32.835 20.8554C33.0561 20.685 33.3181 20.5767 33.5944 20.5417C33.8707 20.5067 34.1513 20.5462 34.4075 20.6562Z" fill="url(#paint3_linear_3119_1478)"/>
<path d="M32.7411 56.0642L10.7158 43.174C10.4921 43.0105 10.3148 42.7908 10.2015 42.5369C10.0882 42.283 10.043 42.0036 10.0702 41.7266L32.0955 54.6168C32.0682 54.8938 32.1135 55.1732 32.2268 55.4271C32.34 55.681 32.5174 55.9007 32.7411 56.0642Z" fill="#4672ED"/>
<path d="M32.7411 56.0642L10.7158 43.174C10.4921 43.0105 10.3148 42.7908 10.2015 42.5369C10.0882 42.283 10.043 42.0036 10.0702 41.7266L32.0955 54.6168C32.0682 54.8938 32.1135 55.1732 32.2268 55.4271C32.34 55.681 32.5174 55.9007 32.7411 56.0642Z" fill="#4771E7"/>
<path d="M32.0959 54.6272L10.0706 41.7265L10.0498 36.6396L32.075 49.5299L32.0959 54.6272Z" fill="url(#paint4_linear_3119_1478)"/>
<path d="M34.2925 45.67L12.2568 32.7693L32.8346 20.8125L54.8598 33.7027L34.2925 45.67Z" fill="#5880ED"/>
<path d="M54.8284 33.7032C56.0573 32.99 57.0466 33.5669 57.0466 34.9933V40.0802C57.0077 40.8535 56.7874 41.6065 56.4036 42.2774C56.0198 42.9483 55.4836 43.5181 54.8388 43.9399L34.2611 55.9071C33.0427 56.6203 32.043 56.0435 32.043 54.617V49.5302C32.0793 48.7563 32.2987 48.0023 32.6826 47.331C33.0666 46.6597 33.6042 46.0904 34.2507 45.6705L54.8284 33.7032Z" fill="url(#paint5_linear_3119_1478)"/>
<path d="M32.0855 49.53L10.0498 36.6397C10.0904 35.8654 10.3114 35.1116 10.6949 34.4392C11.0785 33.7668 11.6138 33.1949 12.2575 32.7695L34.2932 45.6702C33.6467 46.0901 33.1092 46.6594 32.7252 47.3308C32.3412 48.0021 32.1219 48.7561 32.0855 49.53Z" fill="url(#paint6_linear_3119_1478)"/>
<path d="M37.1927 48.9143L37.4321 49.0506C37.3632 49.0079 37.284 48.9853 37.2031 48.9853C37.1222 48.9853 37.0089 49.0079 36.94 49.0506L36.6797 48.9411C36.7486 48.8984 36.8591 48.8633 36.94 48.8633C37.0209 48.8633 37.1238 48.8716 37.1927 48.9143Z" fill="white"/>
<path d="M36.4804 50.619L36.241 50.4827C36.1768 50.4347 36.1258 50.3709 36.093 50.2975C36.0602 50.224 36.0466 50.1434 36.0535 50.0631C36.0658 49.834 36.1317 49.6111 36.2457 49.4125C36.3597 49.2138 36.5185 49.045 36.7095 48.9199L36.9491 49.0563C36.7581 49.1814 36.5991 49.3501 36.4851 49.5488C36.3712 49.7474 36.3054 49.9704 36.2931 50.1995C36.2852 50.2798 36.2982 50.3609 36.3311 50.4345C36.364 50.5081 36.4155 50.5717 36.4804 50.619Z" fill="white"/>
<path d="M36.9275 49.0577C37.2815 48.848 37.573 49.0577 37.573 49.4353C37.5611 49.6633 37.4965 49.8854 37.3844 50.0838C37.2723 50.2823 37.1159 50.4517 36.9275 50.5786C36.563 50.7883 36.2715 50.5785 36.2715 50.201C36.2838 49.9718 36.3496 49.7489 36.4635 49.5502C36.5775 49.3516 36.7365 49.1828 36.9275 49.0577Z" fill="#F0F0F0"/>
<path d="M43.5765 45.3279C43.6432 45.2891 43.7269 45.3371 43.7269 45.4143V46.2736C43.7269 46.3091 43.708 46.342 43.6772 46.36L43.0859 46.7048C43.0193 46.7437 42.9355 46.6956 42.9355 46.6184V45.7592C42.9355 45.7236 42.9544 45.6907 42.9852 45.6728L43.5765 45.3279Z" fill="#F0F0F0"/>
<path d="M44.8369 44.5954C44.9035 44.5559 44.9879 44.6039 44.9879 44.6814V45.5391C44.9879 45.5747 44.969 45.6077 44.9382 45.6256L44.2011 46.0546C44.1344 46.0934 44.0508 46.0453 44.0508 45.9681V45.1187C44.0508 45.0834 44.0694 45.0507 44.0998 45.0327L44.8369 44.5954Z" fill="#F0F0F0"/>
<path d="M51.2049 39.2637V42.7511L50.5215 43.1445V39.6571L51.2049 39.2637Z" fill="#BCCBFF"/>
<path d="M52.7967 38.3623V41.8497L52.1133 42.2431V38.7557L52.7967 38.3623Z" fill="#BCCBFF"/>
<path d="M54.382 37.4492V40.9367L53.7061 41.33V37.8426L54.382 37.4492Z" fill="#BCCBFF"/>
<path fill-rule="evenodd" clip-rule="evenodd" d="M74.6841 52.2598C75.8616 52.2385 77.0219 52.5461 78.0361 53.1481C79.0513 53.7508 79.8803 54.6247 80.4314 55.6725C80.8236 56.4096 81.019 57.2364 80.9986 58.072C80.9783 58.9075 80.743 59.7236 80.3154 60.4405C79.7052 61.4772 78.8317 62.3323 77.7844 62.9174C76.7383 63.5018 75.5566 63.7958 74.3602 63.7692H64.1095C62.8359 63.7456 61.576 64.0387 60.4414 64.6229C59.3069 65.2072 58.3326 66.0645 57.6051 67.1191L57.5959 67.132C57.0337 67.8945 56.7074 68.8077 56.6587 69.7569C56.61 70.7054 56.8406 71.647 57.3212 72.4635C58.0045 73.5995 58.9736 74.5329 60.1299 75.1695C61.2868 75.8065 62.5902 76.1238 63.9078 76.0896L63.9208 76.0893L86.1237 76.0894C86.3998 76.0894 86.6237 76.3133 86.6237 76.5894C86.6237 76.8656 86.3998 77.0894 86.1237 77.0894H63.9272C62.4342 77.1271 60.9578 76.7669 59.6476 76.0455C58.3355 75.3231 57.237 74.2643 56.463 72.9768L56.4607 72.973C55.8797 71.9869 55.6013 70.8502 55.66 69.7056C55.7187 68.5637 56.1104 67.4643 56.7864 66.5449C57.6065 65.3581 58.7045 64.3926 59.9836 63.7339C61.2637 63.0747 62.6855 62.7433 64.1233 62.7692H74.3775C75.397 62.7928 76.4045 62.5428 77.2967 62.0444C78.1889 61.5459 78.9338 60.817 79.4543 59.9321L79.456 59.9293C79.7956 59.3603 79.9828 58.7119 79.9989 58.0477C80.0151 57.3834 79.8597 56.7265 79.5481 56.1414L79.5468 56.139C79.0814 55.2537 78.3816 54.5161 77.5257 54.008C76.6698 53.4999 75.6909 53.241 74.6981 53.2597L74.6887 53.2599L57.0859 53.2598C56.8098 53.2598 56.5859 53.036 56.5859 52.7598C56.5859 52.4837 56.8098 52.2598 57.0859 52.2598H74.6841Z" fill="black"/>
<path d="M54.8284 47.4747C56.0573 46.7615 57.0466 47.3384 57.0466 48.7648V53.8516C57.0077 54.625 56.7874 55.378 56.4036 56.0489C56.0198 56.7198 55.4836 57.2896 54.8388 57.7114L34.2611 69.6786C33.0427 70.3918 32.043 69.8149 32.043 68.3885V63.3017C32.0811 62.5267 32.301 61.772 32.6848 61.0992C33.0686 60.4265 33.6052 59.8549 34.2507 59.4315L54.8284 47.4747Z" fill="url(#paint7_linear_3119_1478)"/>
<path d="M37.1927 62.5334L37.4321 62.6698C37.3632 62.6271 37.284 62.6045 37.2031 62.6045C37.1222 62.6045 37.0089 62.6271 36.94 62.6698L36.6797 62.5603C36.7486 62.5176 36.8591 62.4824 36.94 62.4824C37.0209 62.4824 37.1238 62.4907 37.1927 62.5334Z" fill="white"/>
<path d="M36.4804 64.2392L36.241 64.1028C36.1768 64.0548 36.1258 63.991 36.093 63.9176C36.0602 63.8442 36.0466 63.7635 36.0535 63.6833C36.0658 63.4542 36.1317 63.2312 36.2457 63.0326C36.3597 62.8339 36.5185 62.6652 36.7095 62.54L36.9491 62.6764C36.7581 62.8015 36.5991 62.9702 36.4851 63.1689C36.3712 63.3676 36.3054 63.5905 36.2931 63.8196C36.2852 63.9 36.2982 63.981 36.3311 64.0546C36.364 64.1282 36.4155 64.1918 36.4804 64.2392Z" fill="white"/>
<path d="M36.9275 62.6769C37.2815 62.4671 37.573 62.6769 37.573 63.0544C37.5611 63.2824 37.4965 63.5045 37.3844 63.703C37.2723 63.9014 37.1159 64.0708 36.9275 64.1977C36.563 64.4075 36.2715 64.1977 36.2715 63.8201C36.2838 63.591 36.3496 63.368 36.4635 63.1694C36.5775 62.9707 36.7365 62.802 36.9275 62.6769Z" fill="#F0F0F0"/>
<path d="M51.2078 53.4053V56.8927L50.5244 57.2861V53.7987L51.2078 53.4053Z" fill="#BCCBFF"/>
<path d="M52.7996 52.5039V55.9914L52.1162 56.3847V52.8973L52.7996 52.5039Z" fill="#BCCBFF"/>
<path d="M54.3849 51.5918V55.0792L53.709 55.4726V51.9852L54.3849 51.5918Z" fill="#BCCBFF"/>
<path d="M44.6605 58.7225C44.7272 58.6836 44.8109 58.7317 44.8109 58.8088V59.6681C44.8109 59.7037 44.792 59.7366 44.7612 59.7545L44.1699 60.0993C44.1032 60.1382 44.0195 60.0901 44.0195 60.0129V59.1537C44.0195 59.1181 44.0384 59.0852 44.0692 59.0673L44.6605 58.7225Z" fill="#F0F0F0"/>
<path d="M43.6086 59.3403C43.6752 59.3016 43.7588 59.3497 43.7588 59.4268V60.2861C43.7588 60.3218 43.7398 60.3547 43.7089 60.3726L40.2126 62.3965C40.1459 62.435 40.0625 62.3869 40.0625 62.3099V61.4606C40.0625 61.4249 40.0814 61.392 40.1122 61.3741L43.6086 59.3403Z" fill="#F0F0F0"/>
<path d="M45.9206 57.9976C45.9872 57.9588 46.0709 58.0069 46.0709 58.0841V58.9335C46.0709 58.9688 46.0523 59.0015 46.0219 59.0195L45.2848 59.4568C45.2181 59.4963 45.1338 59.4483 45.1338 59.3708V58.513C45.1338 58.4774 45.1527 58.4445 45.1835 58.4266L45.9206 57.9976Z" fill="#F0F0F0"/>
<path d="M67.4664 56.5797C67.6165 56.1472 67.8964 55.7724 68.2673 55.5072C68.6382 55.2421 69.0818 55.0996 69.5366 55.0996C69.9915 55.0996 70.435 55.2421 70.8059 55.5072C71.1769 55.7724 71.4568 56.1472 71.6068 56.5797L76.7126 65.3811C77.8582 67.3425 76.9581 68.9413 74.6834 68.9413H64.3735C62.1151 68.9413 61.215 67.293 62.3442 65.3811L67.4664 56.5797Z" fill="white"/>
<path d="M70.4286 59.4805V59.3816C70.4286 59.2677 70.406 59.1549 70.3623 59.0498C70.3185 58.9447 70.2542 58.8495 70.1735 58.7697C70.0927 58.6899 69.997 58.6271 69.8918 58.585C69.7867 58.543 69.6743 58.5224 69.5612 58.5246C69.3355 58.5246 69.1191 58.6148 68.9595 58.7756C68.7999 58.9363 68.7102 59.1543 68.7102 59.3816L68.8902 63.5186C68.8902 63.6979 68.9609 63.8698 69.0868 63.9965C69.2126 64.1232 69.3832 64.1944 69.5612 64.1944C69.7391 64.1944 69.9098 64.1232 70.0356 63.9965C70.1615 63.8698 70.2322 63.6979 70.2322 63.5186L70.4286 59.4805ZM67.4664 56.5797C67.6165 56.1472 67.8964 55.7724 68.2673 55.5072C68.6382 55.2421 69.0818 55.0996 69.5366 55.0996C69.9915 55.0996 70.435 55.2421 70.8059 55.5072C71.1769 55.7724 71.4568 56.1472 71.6068 56.5797L76.7127 65.3811C77.8582 67.3425 76.9581 68.9413 74.6834 68.9413H64.3735C62.1151 68.9413 61.215 67.293 62.3442 65.3811L67.4664 56.5797ZM69.5612 66.9963C69.7912 66.9963 70.0118 66.9043 70.1745 66.7405C70.3371 66.5767 70.4286 66.3545 70.4286 66.1228C70.4286 66.0088 70.406 65.896 70.3623 65.791C70.3185 65.6859 70.2542 65.5907 70.1735 65.5108C70.0927 65.431 69.997 65.3683 69.8918 65.3262C69.7867 65.2841 69.6743 65.2635 69.5612 65.2657C69.3355 65.2657 69.1191 65.3561 68.9595 65.5168C68.7999 65.6775 68.7102 65.8955 68.7102 66.1228C68.708 66.2367 68.7285 66.35 68.7703 66.4559C68.8121 66.5618 68.8745 66.6582 68.9537 66.7395C69.0329 66.8208 69.1275 66.8855 69.2318 66.9296C69.3361 66.9737 69.4481 66.9964 69.5612 66.9963Z" fill="#FF4747"/>
<path d="M33.2508 44.0764V44.2757C33.2473 44.33 33.229 44.3824 33.1978 44.4268C33.1665 44.4713 33.1235 44.5061 33.0738 44.5274C32.9414 44.5947 32.7952 44.6297 32.6469 44.6297C32.4986 44.6297 32.3523 44.5947 32.22 44.5274C32.1702 44.5061 32.1273 44.4713 32.096 44.4268C32.0648 44.3824 32.0464 44.33 32.043 44.2757V44.0449C32.0475 44.099 32.0663 44.1508 32.0974 44.1951C32.1286 44.2393 32.1709 44.2744 32.22 44.2966C32.3523 44.3639 32.4986 44.399 32.6469 44.399C32.7952 44.399 32.9414 44.3639 33.0738 44.2966C33.1193 44.2779 33.1594 44.248 33.1904 44.2094C33.2213 44.1709 33.2421 44.1252 33.2508 44.0764Z" fill="#EFEFEF"/>
<path d="M33.2518 44.0677C33.2523 43.8707 32.9824 43.7103 32.6488 43.7094C32.3153 43.7085 32.0445 43.8673 32.044 44.0643C32.0434 44.2612 32.3133 44.4217 32.6469 44.4226C32.9804 44.4235 33.2512 44.2646 33.2518 44.0677Z" fill="white"/>
<path d="M53.3797 33.3049V33.5042C53.3762 33.5586 53.3579 33.6109 53.3267 33.6553C53.2954 33.6998 53.2525 33.7346 53.2027 33.7559C53.0703 33.8232 52.9241 33.8583 52.7758 33.8583C52.6275 33.8583 52.4813 33.8232 52.3489 33.7559C52.2991 33.7346 52.2562 33.6998 52.2249 33.6553C52.1937 33.6109 52.1753 33.5586 52.1719 33.5042V33.2734C52.1764 33.3275 52.1952 33.3793 52.2263 33.4236C52.2575 33.4678 52.2998 33.5029 52.3489 33.5251C52.4813 33.5925 52.6275 33.6275 52.7758 33.6275C52.9241 33.6275 53.0703 33.5925 53.2027 33.5251C53.2482 33.5065 53.2883 33.4765 53.3193 33.438C53.3502 33.3994 53.371 33.3537 53.3797 33.3049Z" fill="#EFEFEF"/>
<path d="M53.3807 33.2962C53.3812 33.0992 53.1113 32.9389 52.7777 32.9379C52.4442 32.937 52.1734 33.0958 52.1729 33.2928C52.1723 33.4897 52.4422 33.6502 52.7758 33.6511C53.1093 33.6521 53.3801 33.4931 53.3807 33.2962Z" fill="white"/>
<path d="M14.9871 33.3049V33.5042C14.9837 33.5586 14.9653 33.6109 14.9341 33.6553C14.9028 33.6998 14.8599 33.7346 14.8101 33.7559C14.6777 33.8232 14.5315 33.8583 14.3832 33.8583C14.2349 33.8583 14.0887 33.8232 13.9563 33.7559C13.9065 33.7346 13.8636 33.6998 13.8324 33.6553C13.8011 33.6109 13.7827 33.5586 13.7793 33.5042V33.2734C13.7838 33.3275 13.8026 33.3793 13.8338 33.4236C13.8649 33.4678 13.9072 33.5029 13.9563 33.5251C14.0887 33.5925 14.2349 33.6275 14.3832 33.6275C14.5315 33.6275 14.6777 33.5925 14.8101 33.5251C14.8556 33.5065 14.8958 33.4765 14.9267 33.438C14.9577 33.3994 14.9784 33.3537 14.9871 33.3049Z" fill="#EFEFEF"/>
<path d="M14.9881 33.2962C14.9886 33.0992 14.7187 32.9389 14.3852 32.9379C14.0516 32.937 13.7808 33.0958 13.7803 33.2928C13.7797 33.4897 14.0497 33.6502 14.3832 33.6511C14.7167 33.6521 14.9876 33.4931 14.9881 33.2962Z" fill="white"/>
<path d="M34.2918 22.0031V22.2024C34.2883 22.2568 34.27 22.3091 34.2388 22.3536C34.2075 22.398 34.1646 22.4328 34.1148 22.4541C33.9824 22.5214 33.8362 22.5565 33.6879 22.5565C33.5396 22.5565 33.3934 22.5214 33.261 22.4541C33.2112 22.4328 33.1683 22.398 33.137 22.3536C33.1058 22.3091 33.0874 22.2568 33.084 22.2024V21.9717C33.0885 22.0257 33.1073 22.0776 33.1384 22.1218C33.1696 22.1661 33.2119 22.2011 33.261 22.2234C33.3934 22.2907 33.5396 22.3258 33.6879 22.3258C33.8362 22.3258 33.9824 22.2907 34.1148 22.2234C34.1603 22.2047 34.2004 22.1747 34.2314 22.1362C34.2623 22.0977 34.2831 22.0519 34.2918 22.0031Z" fill="#EFEFEF"/>
<path d="M34.2928 21.9944C34.2933 21.7975 34.0234 21.6371 33.6899 21.6362C33.3563 21.6352 33.0855 21.7941 33.085 21.991C33.0844 22.188 33.3543 22.3484 33.6879 22.3494C34.0214 22.3503 34.2922 22.1914 34.2928 21.9944Z" fill="white"/>
<path d="M42.5246 45.9458C42.5912 45.907 42.6748 45.9551 42.6748 46.0323V46.8813C42.6748 46.9168 42.656 46.9497 42.6252 46.9676L39.1376 49.0021C39.0714 49.0407 38.988 48.9934 38.9873 48.9166L38.9791 48.0667C38.9787 48.0307 38.9977 47.9974 39.0288 47.9793L42.5246 45.9458Z" fill="#F0F0F0"/>
<defs>
<linearGradient id="paint0_linear_3119_1478" x1="51.561" y1="46.7288" x2="56.3922" y2="43.6706" gradientUnits="userSpaceOnUse">
<stop stop-color="#5880ED"/>
<stop offset="1" stop-color="#4672ED"/>
</linearGradient>
<linearGradient id="paint1_linear_3119_1478" x1="10.082" y1="59.4739" x2="32.1281" y2="59.4739" gradientUnits="userSpaceOnUse">
<stop stop-color="#3462EC"/>
<stop offset="1" stop-color="#4672ED"/>
</linearGradient>
<linearGradient id="paint2_linear_3119_1478" x1="23.9248" y1="53.8996" x2="21.2099" y2="57.9209" gradientUnits="userSpaceOnUse">
<stop stop-color="#5880ED"/>
<stop offset="1" stop-color="#3B68ED"/>
</linearGradient>
<linearGradient id="paint3_linear_3119_1478" x1="44.6339" y1="30.5776" x2="49.9777" y2="22.6408" gradientUnits="userSpaceOnUse">
<stop stop-color="#5880ED"/>
<stop offset="1" stop-color="#4672ED"/>
</linearGradient>
<linearGradient id="paint4_linear_3119_1478" x1="16.7085" y1="43.8345" x2="23.6677" y2="51.0863" gradientUnits="userSpaceOnUse">
<stop stop-color="#3F6BED"/>
<stop offset="1" stop-color="#4672ED"/>
</linearGradient>
<linearGradient id="paint5_linear_3119_1478" x1="32.043" y1="47.5352" x2="58.3714" y2="37.12" gradientUnits="userSpaceOnUse">
<stop stop-color="#386DE9"/>
<stop offset="1" stop-color="#436EE7"/>
</linearGradient>
<linearGradient id="paint6_linear_3119_1478" x1="25.0419" y1="39.3066" x2="21.721" y2="44.5046" gradientUnits="userSpaceOnUse">
<stop offset="0.433148" stop-color="#5880ED"/>
<stop offset="0.899025" stop-color="#3C6AED"/>
</linearGradient>
<linearGradient id="paint7_linear_3119_1478" x1="57.0463" y1="53.8345" x2="36.0311" y2="66.373" gradientUnits="userSpaceOnUse">
<stop stop-color="#426EE7"/>
<stop offset="1" stop-color="#366CE9"/>
</linearGradient>
</defs>
</svg>
