<svg width="96" height="96" viewBox="0 0 96 96" fill="none" xmlns="http://www.w3.org/2000/svg">
<path d="M12.4931 60.846L21.2564 66.4309L44.57 80.5476L78.3671 55.2247L56.799 43.8148L51.7735 46.9469L42.2069 41.668" fill="#D4D6DC"/>
<path d="M42.3633 29.4535C39.3181 31.2103 36.5506 33.2771 35.1719 35.4531L59.7305 49.1992C59.8229 49.0698 62.3628 46.2603 68.4511 42.7466C71.4963 40.9877 74.8937 39.7025 80.2803 37.3767L55.7461 23.5645C55.3804 23.6816 48.4516 25.9377 42.3633 29.4535Z" fill="#FDF9F3"/>
<path d="M40.0927 27.8114C37.7646 30.4456 35.8125 33.2524 35.1961 35.7531L59.4796 49.1914C66.8172 41.6339 62.2192 42.5481 66.8754 37.2817C69.2034 34.6474 69.9962 36.3946 74.5332 32.7473L51.4835 21.453C51.1752 21.6893 44.7488 22.5429 40.0927 27.8114Z" fill="white"/>
<path d="M59.75 57.4766C59.8425 57.3471 61.604 55.0298 67.6964 51.5161C71.0539 49.6112 76.6844 46.0276 80.2871 44.6412L80.2864 37.3594C76.684 38.7466 71.0297 41.2367 67.6718 43.1408C61.5835 46.6545 60.5728 48.5986 59.7227 49.1875" fill="url(#paint0_linear_3081_1562)"/>
<path d="M23.3281 39.6154L23.1781 39.7037C17.739 42.8969 15.8815 47.0887 15.7808 47.3065L41.0547 61.9941C46.9725 56.6516 50.2376 52.0407 53.6629 50.064C54.0223 49.8547 54.3966 49.672 54.7827 49.5174C57.1026 48.5969 59.5951 49.164 59.7266 49.1948L35.3157 35.4277C30.9986 36.3462 26.7657 37.6325 23.3281 39.6154Z" fill="#FDF9F3"/>
<path d="M15.7773 47.3008L15.8041 55.7269L41.0801 70.4145L41.0586 61.9922L15.7773 47.3008Z" fill="#ECDBBB"/>
<path fill-rule="evenodd" clip-rule="evenodd" d="M57.504 48.9941L57.5266 57.3694H58.1143L58.0896 48.9941H57.504ZM56.9942 57.3982L56.9716 49.0229C57.1524 49.0065 57.3312 48.9941 57.5038 48.9941L57.5264 57.3694C57.3558 57.3736 57.1771 57.3818 56.9942 57.3982ZM56.462 49.0779L56.462 49.0812C56.2958 49.1058 56.1275 49.1345 55.9592 49.1694L55.9592 49.1725C55.7773 49.2089 55.5934 49.2512 55.4095 49.2994L55.4095 49.3066C55.2051 49.366 55.0008 49.4355 54.7964 49.5111L54.7964 49.5137H54.7852C54.399 49.6683 54.0248 49.851 53.6653 50.0603C51.6891 51.2007 49.7663 53.2186 47.3566 55.7475C45.5896 57.6019 43.5607 59.731 41.0571 61.9903L41.0797 70.3657C43.5805 68.108 45.6079 65.981 47.374 64.1282L47.374 64.1282C49.7871 61.5966 51.7121 59.5769 53.69 58.4356C54.0489 58.2267 54.4225 58.044 54.8078 57.889H54.8242L54.8242 57.8852C55.0286 57.8035 55.2331 57.7341 55.4375 57.681L55.4375 57.6742C55.6251 57.625 55.8106 57.58 55.9961 57.5452L55.9961 57.5418C56.1618 57.5082 56.3255 57.4803 56.4873 57.4564L56.4873 57.4532C56.6597 57.4286 56.8279 57.4101 56.9941 57.3978L56.9715 49.0225C56.8051 49.0348 56.6346 49.0533 56.462 49.0779ZM58.1146 57.3714L58.0899 48.9961C58.3324 49.0043 58.5502 49.0208 58.7557 49.0413L58.7783 57.4166L58.741 57.4128C58.5514 57.3931 58.342 57.3714 58.1146 57.3714ZM58.756 49.041L58.7786 57.4163C59.0847 57.4472 59.3334 57.4841 59.5039 57.515L59.5039 57.5097C59.5779 57.4934 59.5863 57.4916 59.5947 57.4913C59.6053 57.4911 59.616 57.4934 59.7578 57.4727L59.7288 49.186C59.9111 49.2156 59.8169 49.1997 59.6839 49.1773C59.6151 49.1657 59.5359 49.1524 59.4793 49.1427L59.4792 49.1417C59.3108 49.1109 59.0683 49.0718 58.756 49.041Z" fill="#C0AE92"/>
<path d="M59.7188 49.1797L35.9274 40.4211C31.5216 37.9863 23.8495 42.1051 19.7676 44.1341L41.8099 57.2598C43.4047 54.953 45.156 51.4809 48.5938 50.0073C52.1537 48.4814 57.6602 48.7656 59.7188 49.1797Z" fill="#F8EDDA"/>
<path d="M59.7266 49.1875L35.5566 35.6575C31.1508 33.2227 21.8856 36.672 17.8037 38.701L42.6228 53.8457C43.9807 51.8817 46.6093 50.1745 49.2295 49.3522C51.2006 48.7337 53.3702 48.6349 55.3292 48.6902C56.9989 48.6902 58.6055 48.918 59.7266 49.1875Z" fill="white"/>
<path d="M35.5508 34.6406L35.1875 35.4531L59.7941 49.1368L60.2906 48.6817L35.5508 34.6406Z" fill="#FEF9EF"/>
<path d="M63.9023 43.2623C63.7594 43.7452 61.5015 47.159 60.2578 48.7109L65.016 44.737C64.7204 44.0596 64.0469 42.7742 63.9023 43.2623Z" fill="#F8EDDA"/>
<path d="M47.6073 30.5315C50.4115 28.7342 55.0701 28.5197 58.0107 30.0509C60.9513 31.5822 61.0625 34.2782 58.2533 36.0851C55.4442 37.892 50.7897 38.0985 47.8491 36.5673C44.9085 35.036 44.8007 32.3295 47.6073 30.5315ZM53.8534 32.1323C53.795 31.9788 53.7063 31.8386 53.5927 31.7199C53.479 31.6013 53.3427 31.5067 53.1919 31.4418C52.6981 31.1855 52.143 31.0712 51.5881 31.1114C50.9908 31.1418 50.4121 31.3296 49.9108 31.6558C49.345 32.0171 49.088 32.3996 49.1602 32.8037C49.2323 33.2078 49.5309 33.513 50.0981 33.8186L50.5831 33.5072C50.1509 33.2714 49.8913 33.025 49.822 32.765C49.7362 32.466 49.9182 32.1852 50.3436 31.9102C50.7034 31.6733 51.12 31.5371 51.5502 31.5155C51.9542 31.4989 52.3555 31.5879 52.7146 31.7735C52.8254 31.8257 52.9243 31.9003 53.0049 31.9925C53.0855 32.0847 53.1463 32.1925 53.1832 32.3093C53.2089 32.5169 53.2184 32.7263 53.2119 32.9354C53.1831 33.1747 53.2275 33.4171 53.3391 33.6308C53.4754 33.8633 53.68 34.0481 53.9251 34.1601L54.1711 34.2873L54.6627 33.9711L54.4199 33.8455C54.2149 33.7506 54.0462 33.5918 53.9389 33.3929C53.8629 33.2327 53.8385 33.0528 53.8691 32.878C53.8813 32.6274 53.875 32.3763 53.8502 32.1266L53.8534 32.1323ZM56.1504 34.6754C56.1401 34.624 56.1171 34.576 56.0834 34.5358C56.0497 34.4956 56.0065 34.4645 55.9577 34.4453C55.8287 34.3801 55.6848 34.3499 55.5404 34.3579C55.3922 34.3645 55.2483 34.4094 55.1226 34.4881C55.0742 34.5103 55.0325 34.5451 55.002 34.5888C54.9715 34.6325 54.9533 34.6835 54.9492 34.7367C54.9472 34.8273 55.006 34.9066 55.1346 34.9731C55.2639 35.0361 55.4079 35.0627 55.5512 35.0501C55.7002 35.0498 55.8464 35.0102 55.9752 34.9353C56.023 34.9101 56.0642 34.8741 56.0954 34.8301C56.1267 34.7861 56.1472 34.7354 56.1552 34.682" fill="#FF5E2F"/>
<defs>
<linearGradient id="paint0_linear_3081_1562" x1="63.2266" y1="52.1721" x2="89.1254" y2="37.8765" gradientUnits="userSpaceOnUse">
<stop stop-color="#C0AE92"/>
<stop offset="1" stop-color="#ECDBBB"/>
</linearGradient>
</defs>
</svg>
