<svg width="96" height="97" viewBox="0 0 96 97" fill="none" xmlns="http://www.w3.org/2000/svg">
<path d="M71.9176 66.9155C73.428 67.6707 73.428 68.9654 71.9176 69.8285L50.4474 81.2649C49.5973 81.6388 48.6788 81.8319 47.7501 81.8319C46.8214 81.8319 45.9029 81.6388 45.0528 81.2649L23.4747 69.8285C21.9642 69.0733 21.9642 67.7786 23.4747 66.9155L44.9448 55.479C45.7949 55.1052 46.7134 54.9121 47.6421 54.9121C48.5708 54.9121 49.4893 55.1052 50.3394 55.479L71.9176 66.9155Z" fill="#D3D5DA"/>
<path d="M72.7067 53.9549L72.6946 57.7917C72.6543 58.201 72.5075 58.5926 72.2687 58.9274C72.03 59.2623 71.7076 59.5287 71.3337 59.7L71.3458 55.8633C71.7197 55.6919 72.0421 55.4255 72.2808 55.0907C72.5196 54.7558 72.6664 54.3642 72.7067 53.9549Z" fill="#B75855"/>
<path d="M23.1498 53.8406L23.1619 57.6774C23.2021 58.0867 23.3489 58.4783 23.5877 58.8132C23.8265 59.148 24.1489 59.4144 24.5227 59.5858L24.5107 55.749C24.1368 55.5776 23.8144 55.3113 23.5756 54.9764C23.3368 54.6415 23.19 54.2499 23.1498 53.8406Z" fill="#B75855"/>
<path d="M71.3608 55.8599L71.3487 59.6967L51.3076 71.3398L51.3197 67.5031L71.3608 55.8599Z" fill="#B75855"/>
<path d="M44.6719 67.4437L44.6598 71.2805L24.4941 59.5741L24.4941 55.7978L44.6719 67.4437Z" fill="#B75855"/>
<path d="M24.5208 55.875C22.6867 54.8153 22.678 53.091 24.5007 52.0296L44.5419 40.3865C45.5688 39.8608 46.7059 39.5865 47.8595 39.5863C49.0132 39.5861 50.1504 39.8599 51.1776 40.3851L71.3554 52.0311C73.1895 53.0908 73.2049 54.8112 71.3755 55.8765L51.3344 67.5197C50.3067 68.0429 49.1699 68.3157 48.0167 68.3159C46.8634 68.3162 45.7265 68.0438 44.6986 67.5209L24.5208 55.875Z" fill="#E76562"/>
<path d="M51.3345 67.505L51.3186 71.3306C51.1366 71.4489 50.8694 71.5376 50.6759 71.636L50.676 67.8174C50.8694 67.7189 51.1525 67.6233 51.3345 67.505Z" fill="#B75855"/>
<path d="M50.6979 67.7952L50.6858 71.632C50.5568 71.7065 50.3974 71.7441 50.242 71.7886L50.2581 67.9586C50.3939 67.8802 50.5571 67.8493 50.6979 67.7952Z" fill="#B75855"/>
<path d="M50.259 67.9584L50.2429 71.7884C50.1343 71.8511 49.9982 71.8663 49.8739 71.9019L49.8792 68.069L50.259 67.9584Z" fill="#B75855"/>
<path d="M49.8793 68.0689L49.874 71.9017C49.7721 71.9605 49.6418 71.9543 49.5203 71.9791L49.5324 68.1424C49.6343 68.0836 49.7685 68.0966 49.8793 68.0689Z" fill="#B75855"/>
<path d="M49.5318 68.1422L49.5197 71.9789C49.4314 72.0299 49.3078 72.0197 49.1932 72.0407L48.9829 70.1541L49.2053 68.2039C49.2935 68.1529 49.4278 68.166 49.5318 68.1422Z" fill="#B75855"/>
<path d="M49.2008 68.1969L49.1887 72.0336C49.1072 72.0807 48.9797 72.0637 48.8679 72.0739L48.88 68.2372C48.9918 68.227 49.0929 68.2139 49.2008 68.1969Z" fill="#B75855"/>
<path d="M48.8844 68.2438L48.8723 72.0805C48.7909 72.1276 48.6663 72.1 48.5545 72.1102L48.5705 68.2802L48.8844 68.2438Z" fill="#B75855"/>
<path d="M48.57 68.2808L48.554 72.1108C48.4496 72.1242 48.3443 72.1304 48.239 72.1297L48.2511 68.2929C48.36 68.2934 48.465 68.2871 48.57 68.2808Z" fill="#B75855"/>
<path d="M48.2517 68.2926L48.2396 72.1294C48.1346 72.1357 48.0257 72.1352 47.9167 72.1347L47.9288 68.298C48.0378 68.2985 48.1467 68.2989 48.2517 68.2926Z" fill="#B75855"/>
<path d="M47.9285 68.298L47.9164 72.1348C47.8075 72.1343 47.6458 72.1418 47.5329 72.1345L47.5541 68.298C47.6669 68.3053 47.8196 68.2975 47.9285 68.298Z" fill="#B75855"/>
<path d="M47.5846 68.2974L47.5726 72.1343L47.234 72.1123L47.234 68.27L47.5846 68.2974Z" fill="#B75855"/>
<path d="M47.2535 68.2721L47.2482 72.1049L46.8697 72.0609L46.8818 68.2242C47.0093 68.2411 47.13 68.2619 47.2535 68.2721Z" fill="#B75855"/>
<path d="M46.8813 68.2242L46.8692 72.0609L46.4507 71.9947L46.4628 68.1579L46.8813 68.2242Z" fill="#B75855"/>
<path d="M46.6603 68.1849L46.4509 71.9944C46.2767 71.9592 46.1053 71.9133 45.9378 71.8742L45.9378 68.0011C46.1024 68.051 46.486 68.1497 46.6603 68.1849Z" fill="#B75855"/>
<path d="M45.9619 68.2249L45.9498 71.8749C45.4948 71.7521 45.0649 71.5187 44.6542 71.2876L44.6232 67.4806C45.0367 67.695 45.5053 67.8604 45.9463 68.0044" fill="#B75855"/>
<path fill-rule="evenodd" clip-rule="evenodd" d="M49.9212 60.2744L49.9212 60.2748C50.3017 60.2443 50.6822 60.2055 51.0599 60.1583L51.0606 60.1682L51.0549 60.169H51.0606L51.0606 60.1682C51.5528 60.1046 52.0334 60.0299 52.5083 59.9386C54.3977 59.6009 56.2201 58.983 57.9093 58.1073L57.909 58.1059C58.2655 57.9149 58.5961 57.7183 58.9093 57.5135C59.3397 57.2337 59.7478 56.924 60.1302 56.5867C60.3889 56.359 60.6326 56.1162 60.8598 55.8597C61.0463 55.6525 61.2181 55.4337 61.3743 55.2048L47.8576 15.5418L61.3743 55.2048V55.202C61.5115 55.0052 61.6365 54.8008 61.7487 54.59L61.7493 54.5917V54.5945C61.8499 54.4034 61.9392 54.207 62.0168 54.0063L62.0157 54.0033H62.0168L62.0153 53.9995C62.0867 53.8138 62.1464 53.6242 62.1941 53.4317V53.4206C62.2383 53.2433 62.2772 53.047 62.3014 52.8651L62.3016 52.8656C62.3246 52.6815 62.3362 52.4906 62.3365 52.3051V52.2996C62.3353 52.114 62.3227 51.9287 62.2987 51.7446C62.2744 51.5532 62.2299 51.3125 62.1826 51.125L62.1748 51.1055C62.1265 50.9342 62.0698 50.765 62.0051 50.5986L47.8349 15.4662L47.834 15.4531L47.8345 15.4653L47.834 15.4639L47.8342 15.4716L47.8311 15.4639L47.833 15.472L47.8311 15.4668L47.8331 15.4726L47.8343 15.4776L47.8344 15.48L47.8281 15.4639L47.8344 15.4804L48.8863 60.3493V60.3382C49.2322 60.3243 49.5752 60.3049 49.9212 60.2744ZM47.8348 15.4815L49.854 58.832L47.8354 15.4834L47.8354 15.483L47.8348 15.4815ZM47.8962 15.6438L47.9359 15.7486L62.0153 53.9995L62.0148 54.0009L47.8962 15.6438ZM47.8656 15.5606L47.8621 15.5512L47.8398 15.4884L47.8392 15.4861L47.8874 15.617L47.8656 15.5606ZM47.8389 15.4845L47.9553 15.7923L51.3711 24.6138L47.8386 15.4833L47.8389 15.4845ZM47.8347 15.4732L47.8347 15.4734L47.8344 15.4727L47.8344 15.4725L47.8347 15.4732ZM47.8344 15.473L47.8347 15.4738L47.8347 15.4742L47.8344 15.4733L47.8344 15.473ZM47.8353 15.4825L47.8348 15.4811L47.8347 15.4793L47.8353 15.4817L47.8353 15.4825ZM47.8342 15.4719L47.8311 15.4639L47.8342 15.4727L47.8342 15.4724L47.8311 15.4639L47.8342 15.4721L47.8342 15.4719ZM47.8344 15.4721L47.834 15.4639L47.8346 15.4727L47.8344 15.4721ZM47.8381 15.4815L47.8351 15.4686L47.8349 15.4662L51.3728 24.2646L47.8381 15.4815ZM47.8346 15.4653L47.8346 15.4665L47.834 15.4639L47.8346 15.4653Z" fill="url(#paint0_linear_3119_1368)"/>
<path fill-rule="evenodd" clip-rule="evenodd" d="M43.1475 60.1188L43.1474 60.1194C43.6242 60.211 44.1067 60.2859 44.6009 60.3498H44.6823C45.0316 60.3921 45.3831 60.4274 45.7346 60.4556L45.7395 60.3498H48.9092L47.822 15.6559L47.8226 15.6534L47.8247 15.6476L47.8227 15.6529L47.8247 15.6447L47.8219 15.6524L47.8219 15.6517L47.8247 15.6447L47.8219 15.6516L47.8217 15.6447L47.8209 15.6532L47.8218 15.6339L47.8202 15.656L47.8021 15.7012L47.8279 15.4553L47.8286 15.4535L47.8279 15.4552L47.8281 15.4531L47.8272 15.4571L47.7693 15.6073L47.8257 15.4535L47.7014 15.7835L45.7548 20.8354L45.7196 20.9237L47.8257 15.4535L43.5886 26.2675L33.357 51.9254C33.3332 52.1086 33.3206 52.293 33.3192 52.4776L33.3192 52.4777C33.3192 52.4785 33.3192 52.4792 33.3192 52.48C33.3192 52.4801 33.3192 52.4802 33.3192 52.4804V52.4859L33.3192 52.4859C33.3198 52.6697 33.3315 52.8586 33.3541 53.041L33.3543 53.0405C33.3785 53.2232 33.4174 53.4205 33.4617 53.5987V53.6099C33.5094 53.8033 33.5691 53.9938 33.6404 54.1804L46.8338 18.1615L47.7211 15.9077L47.7072 15.9667L33.6409 54.1818L33.6404 54.1804L33.639 54.1843H33.64L33.639 54.1871C33.7165 54.3878 33.8058 54.5842 33.9064 54.7753V54.7725L33.907 54.7708C34.0192 54.9816 34.1442 55.186 34.2814 55.3828V55.3856L47.69 16.0399L34.2814 55.3856C34.4376 55.6145 34.6095 55.8333 34.7959 56.0405C35.0231 56.297 35.2668 56.5398 35.5256 56.7675C35.908 57.1048 36.3161 57.4146 36.7465 57.6943C37.0604 57.8996 37.3918 58.0966 37.7493 58.2881L37.7507 58.2825C39.4388 59.1602 41.2597 59.7797 43.1475 60.1188ZM46.9768 17.7708L47.7208 15.7396L47.8271 15.4573L47.723 15.8996L46.9768 17.7708ZM44.5545 23.9503L44.2856 24.6482L44.5445 23.9758L44.5545 23.9503ZM47.8257 15.4535L44.2835 24.2982L47.8227 15.4535L33.6506 50.7627C33.5859 50.9299 33.5293 51.0999 33.481 51.2721L33.4731 51.2917C33.4258 51.4801 33.3813 51.722 33.357 51.9144L47.8257 15.4535ZM47.82 15.6577L47.8201 15.6562L47.802 15.7022L47.8011 15.7109L47.82 15.6577ZM47.8193 15.6682L47.8193 15.6672L47.7948 15.771L44.0316 51.7068L47.8193 15.6682Z" fill="url(#paint1_linear_3119_1368)"/>
<path d="M58.5579 42.0483C49.0856 51.1088 40.3606 45.8074 37.122 42.0322L35.1924 46.827C44.8704 55.8873 56.6264 50.6032 60.4873 46.8281L58.5579 42.0483Z" fill="white"/>
<path fill-rule="evenodd" clip-rule="evenodd" d="M54.1834 31.1279C49.2107 34.0359 44.6519 33.3735 41.2625 31.6728L41.2652 31.6813L39.4609 36.2098C45.5087 39.1468 51.7295 37.8304 55.9776 35.682L54.1631 31.1786L54.1834 31.1279Z" fill="white"/>
<defs>
<linearGradient id="paint0_linear_3119_1368" x1="51.7952" y1="44.1051" x2="59.2625" y2="45.1254" gradientUnits="userSpaceOnUse">
<stop stop-color="#FE6E67"/>
<stop offset="1" stop-color="#BB3835"/>
</linearGradient>
<linearGradient id="paint1_linear_3119_1368" x1="40.5557" y1="42.799" x2="35.7257" y2="53.0688" gradientUnits="userSpaceOnUse">
<stop stop-color="#FE6E67"/>
<stop offset="1" stop-color="#FE6E67"/>
</linearGradient>
</defs>
</svg>