<svg width="14" height="14" viewBox="0 0 14 14" fill="none" xmlns="http://www.w3.org/2000/svg">
<path fill-rule="evenodd" clip-rule="evenodd" d="M11 3C11 3.55228 10.5523 4 10 4C9.44772 4 9 3.55228 9 3C9 2.44772 9.44772 2 10 2C10.5523 2 11 2.44772 11 3ZM12 3C12 4.10457 11.1046 5 10 5C9.32283 5 8.72426 4.66345 8.36243 4.1485L4.80014 6.12747C4.92818 6.39115 5 6.68719 5 7C5 7.31282 4.92818 7.60886 4.80014 7.87254L8.36239 9.85156C8.72421 9.33657 9.3228 9 10 9C11.1046 9 12 9.89543 12 11C12 12.1046 11.1046 13 10 13C8.89543 13 8 12.1046 8 11C8 10.9324 8.00335 10.8656 8.00991 10.7997L4.13499 8.64698C3.81254 8.86961 3.4215 9 3 9C1.89543 9 1 8.10457 1 7C1 5.89543 1.89543 5 3 5C3.4215 5 3.81254 5.13039 4.135 5.35303L8.00991 3.20039C8.00336 3.13448 8 3.06763 8 3C8 1.89543 8.89543 1 10 1C11.1046 1 12 1.89543 12 3ZM3 8C3.55228 8 4 7.55228 4 7C4 6.44772 3.55228 6 3 6C2.44772 6 2 6.44772 2 7C2 7.55228 2.44772 8 3 8ZM10 12C10.5523 12 11 11.5523 11 11C11 10.4477 10.5523 10 10 10C9.44772 10 9 10.4477 9 11C9 11.5523 9.44772 12 10 12Z" fill="currentColor"/>
</svg>
