<svg width="14" height="14" viewBox="0 0 14 14" fill="none" xmlns="http://www.w3.org/2000/svg">
<path d="M6.55776 0.838211C6.74536 0.482641 7.2546 0.482641 7.4422 0.838211L9.02478 3.83777C9.09718 3.9749 9.22898 4.0707 9.38178 4.09713L12.7236 4.67535C13.1197 4.74389 13.2771 5.22821 12.9969 5.51651L10.6332 7.94856C10.5251 8.05974 10.4748 8.21475 10.4968 8.36821L10.9796 11.7251C11.0368 12.123 10.6248 12.4224 10.2641 12.245L7.2206 10.7485C7.08148 10.6801 6.91848 10.6801 6.77936 10.7485L3.73591 12.245C3.37514 12.4224 2.96315 12.123 3.02038 11.7251L3.50314 8.36821C3.52521 8.21475 3.47484 8.05974 3.36679 7.94856L1.00308 5.51651C0.72288 5.22821 0.88024 4.74389 1.27639 4.67535L4.61819 4.09713C4.77096 4.0707 4.90282 3.9749 4.97517 3.83777L6.55776 0.838211Z" fill="currentColor"/>
</svg>
