<svg width="16" height="16" viewBox="0 0 16 16" fill="none" xmlns="http://www.w3.org/2000/svg">
<path d="M7.55778 1.83817C7.74538 1.4826 8.25462 1.4826 8.44222 1.83817L10.0248 4.83773C10.0972 4.97486 10.229 5.07066 10.3818 5.09709L13.7236 5.67531C14.1197 5.74385 14.2771 6.22817 13.9969 6.51647L11.6332 8.94852C11.5251 9.0597 11.4748 9.21471 11.4968 9.36817L11.9796 12.7251C12.0368 13.123 11.6248 13.4224 11.2641 13.245L8.22062 11.7485C8.0815 11.6801 7.9185 11.6801 7.77938 11.7485L4.73593 13.245C4.37516 13.4224 3.96317 13.123 4.0204 12.7251L4.50316 9.36817C4.52523 9.21471 4.47486 9.0597 4.36681 8.94852L2.0031 6.51647C1.7229 6.22817 1.88026 5.74385 2.27641 5.67531L5.61821 5.09709C5.77098 5.07066 5.90284 4.97486 5.97519 4.83773L7.55778 1.83817Z" fill="currentColor"/>
</svg>
