<svg width="14" height="14" viewBox="0 0 14 14" fill="none" xmlns="http://www.w3.org/2000/svg">
<g clip-path="url(#clip0_4_24794)">
<path d="M4.70346 4.58977L4.61821 4.09709L4.70346 4.58977C5.00899 4.53691 5.27272 4.3453 5.41741 4.07105L7 1.07149L8.58259 4.07105C8.72728 4.3453 8.99101 4.53691 9.29655 4.58977L12.6383 5.16799L10.2746 7.60004C10.0585 7.8224 9.9578 8.13243 10.0019 8.43934L10.4847 11.7963L7.44125 10.2998C7.16299 10.163 6.83701 10.163 6.55875 10.2998L3.51531 11.7963L3.99807 8.43934C4.0422 8.13242 3.94147 7.8224 3.72536 7.60004L1.36165 5.16799L4.70346 4.58977Z" stroke="currentColor" fill="none" />
</g>
<defs>
<clipPath id="clip0_4_24794">
<rect width="14" height="14" fill="white"/>
</clipPath>
</defs>
</svg>
