<svg width="16" height="16" viewBox="0 0 16 16" fill="none" xmlns="http://www.w3.org/2000/svg">
<path fill-rule="evenodd" clip-rule="evenodd" d="M8 0C12.4183 0 16 3.58173 16 8C16 12.4183 12.4183 16 8 16C3.58173 16 0 12.4183 0 8C0 3.58173 3.58173 0 8 0Z" fill="#0BB645"/>
<path fill-rule="evenodd" clip-rule="evenodd" d="M11.0933 5.48754C11.3761 5.72325 11.4144 6.14363 11.1787 6.42648L7.84532 10.4265C7.72541 10.5704 7.55049 10.6572 7.36338 10.6657C7.17627 10.6742 6.99421 10.6035 6.86177 10.4711L4.86177 8.4711C4.60142 8.21075 4.60142 7.78864 4.86177 7.52829C5.12212 7.26794 5.54423 7.26794 5.80458 7.52829L7.28837 9.01208L10.1544 5.5729C10.3901 5.29005 10.8104 5.25183 11.0933 5.48754Z" fill="white"/>
</svg>
