<svg width="14" height="14" viewBox="0 0 14 14" fill="none" xmlns="http://www.w3.org/2000/svg">
<g clip-path="url(#clip0_2730_31071)">
<path d="M5.12842 9.22485L2.40353 11.9497" stroke="currentColor" stroke-linecap="round" fill="none" />
<path fill-rule="evenodd" clip-rule="evenodd" d="M9.30184 2.10062C9.45446 1.79537 9.86128 1.72935 10.1026 1.97067L12.3831 4.2512C12.6244 4.49252 12.5584 4.89934 12.2532 5.05196L9.98941 6.18385C9.79437 6.28137 9.68503 6.49404 9.71919 6.7094C9.75157 6.91349 9.75865 7.12066 9.74045 7.32591L10.5845 8.16994C10.7134 7.76585 10.767 7.34311 10.7456 6.92378L12.7004 5.94639C13.6161 5.48852 13.8142 4.26805 13.0902 3.54409L10.8097 1.26357C10.0857 0.539605 8.86528 0.737659 8.40741 1.65341L7.43002 3.60818C7.01068 3.58675 6.58793 3.64044 6.18383 3.76932L7.02787 4.61335C7.23312 4.59515 7.4403 4.60223 7.6444 4.63461C7.85976 4.66877 8.07243 4.55943 8.16995 4.36439L9.30184 2.10062ZM5.20218 5.61609L4.49507 4.90898L2.65405 6.75001C2.45878 6.94527 2.45878 7.26185 2.65405 7.45711L6.89669 11.6998C7.09195 11.895 7.40853 11.895 7.60379 11.6998L9.44484 9.85871L8.73773 9.1516L7.25024 10.6391L3.71471 7.10356L5.20218 5.61609Z" fill="currentColor"/>
<path d="M4 3L10.9999 9.99988" stroke="currentColor" stroke-linecap="round" fill="none"/>
</g>
</svg>
