<svg width="24" height="24" viewBox="0 0 24 24" fill="none" xmlns="http://www.w3.org/2000/svg">
<path d="M12.8148 12.4816L12.8718 12.427C12.9097 12.3904 12.9474 12.3537 12.9849 12.3166L13.0613 12.241L13.2935 12.0117L13.6086 11.7004L13.8793 11.4328L14.1335 11.1816L14.3988 10.9195L14.6422 10.6791L14.981 10.3443C15.0455 10.2811 15.111 10.219 15.1776 10.1581C15.3005 10.0457 15.427 9.93748 15.5571 9.83316C15.6762 9.73751 15.7983 9.64553 15.9232 9.55699C16.0981 9.43305 16.2783 9.31639 16.4638 9.20702C16.6451 9.10013 16.8311 9.00062 17.0218 8.90848C17.2007 8.82199 17.3835 8.74245 17.5699 8.66968C17.6738 8.62922 17.7788 8.59099 17.8848 8.55491C17.9379 8.53691 17.9912 8.51942 18.0449 8.50253C17.5746 6.65213 16.7133 4.92402 15.5189 3.43462C15.4047 3.29266 15.2601 3.17815 15.0958 3.09956C14.9314 3.02098 14.7515 2.98031 14.5693 2.98058L4.812 2.98047C4.77348 2.98044 4.73593 2.99261 4.70474 3.01522C4.67356 3.03783 4.65033 3.06974 4.63838 3.10636C4.62644 3.14298 4.6264 3.18245 4.63825 3.2191C4.65011 3.25575 4.67327 3.28771 4.7044 3.31039C8.03523 5.75163 10.7951 8.88816 12.7927 12.5026L12.8148 12.4816Z" fill="#00D6B9"/>
<path d="M23.7432 8.93426C22.0431 8.10129 20.0957 7.92343 18.2727 8.43463C18.1963 8.45615 18.1203 8.47877 18.0447 8.5026C17.9912 8.51949 17.9379 8.53698 17.8847 8.55506C17.7787 8.59106 17.6738 8.62929 17.5699 8.66983C17.3835 8.74243 17.2008 8.82206 17.0217 8.90855C16.8312 9.0006 16.6452 9.10012 16.4637 9.20718C16.2784 9.31638 16.0983 9.43303 15.9231 9.55715C15.7983 9.6456 15.6763 9.73758 15.5571 9.83323C15.427 9.93746 15.3005 10.0458 15.1776 10.1583C15.111 10.2191 15.0454 10.2812 14.981 10.3444L14.6421 10.6792L14.3988 10.9197L14.1335 11.1818L13.8793 11.433L13.6085 11.7005L13.2934 12.0118L13.0613 12.2412L12.9848 12.3168C12.9473 12.3537 12.9097 12.3905 12.8718 12.427L12.8148 12.4817C12.7863 12.509 12.7576 12.5361 12.7287 12.5631C12.6969 12.5928 12.665 12.6225 12.6328 12.652C11.7939 13.4229 10.8603 14.084 9.85449 14.6193C9.91449 14.6476 9.97475 14.6757 10.035 14.7037C10.0827 14.7258 10.1305 14.7477 10.1783 14.7696C10.2245 14.7906 10.2708 14.8116 10.3172 14.8325C10.3628 14.853 10.4085 14.8734 10.4543 14.8937C10.5043 14.9159 10.5544 14.9379 10.6046 14.9599C10.6624 14.9851 10.7203 15.0102 10.7783 15.0351C10.8339 15.0589 10.8895 15.0825 10.9452 15.1059C11.0173 15.1364 11.0896 15.1665 11.1621 15.1964C11.2203 15.2203 11.2785 15.244 11.3369 15.2677C11.4267 15.3039 11.5167 15.3398 11.6069 15.3752C11.692 15.4086 11.7773 15.4416 11.8629 15.4743C11.9268 15.4987 11.9908 15.5229 12.055 15.5468C12.1653 15.588 12.2759 15.6285 12.3869 15.6685C12.443 15.6886 12.499 15.7087 12.5553 15.7285C12.6337 15.7562 12.7124 15.7836 12.7912 15.8107C12.856 15.8329 12.9209 15.8549 12.986 15.8768C13.0809 15.9087 13.1763 15.94 13.2718 15.9711C13.3721 16.0035 13.4727 16.0356 13.5736 16.0671C13.6968 16.1056 13.8203 16.1433 13.9443 16.1803C14.0271 16.205 14.11 16.2293 14.1933 16.2533C14.3599 16.3015 14.5273 16.3483 14.6955 16.3937C14.7559 16.41 14.8162 16.4253 14.8766 16.4397C14.9913 16.4671 15.1056 16.4909 15.2197 16.5111C15.351 16.5345 15.4817 16.5533 15.6119 16.5675C15.7894 16.587 15.9657 16.5981 16.1405 16.6008C16.3001 16.6033 16.4583 16.599 16.615 16.5879C16.7644 16.5774 16.9123 16.5608 17.0585 16.5381C17.2599 16.5069 17.4594 16.464 17.6559 16.4096C17.7875 16.3731 17.9171 16.3315 18.0448 16.2849C18.1629 16.2418 18.2792 16.1945 18.3935 16.143C18.5253 16.0836 18.6543 16.0187 18.7806 15.9483C18.8427 15.9136 18.904 15.8777 18.9647 15.8405C19.023 15.8047 19.0806 15.7677 19.1374 15.7296C19.2273 15.6693 19.3153 15.6062 19.4014 15.54C19.4751 15.4836 19.5473 15.425 19.6181 15.3643C19.7455 15.2552 19.868 15.1394 19.9857 15.0169C20.0435 14.9566 20.1001 14.8949 20.1555 14.8315C20.2255 14.7513 20.2935 14.6686 20.3594 14.5835C20.4118 14.5155 20.463 14.4461 20.5127 14.3751C20.6531 14.1744 20.7803 13.9648 20.8936 13.7476L21.0242 13.4872L22.2038 11.1357L22.2018 11.1405C22.5774 10.3177 23.0997 9.57 23.7432 8.93426Z" fill="#133C9A"/>
<path d="M8.94554 21.0711C11.3357 21.0719 13.6826 20.4335 15.7429 19.2219C17.8033 18.0103 19.5021 16.2697 20.6632 14.1806C20.7436 14.0363 20.8214 13.8904 20.8966 13.7428C20.7826 13.9618 20.6545 14.173 20.5129 14.3753C20.4632 14.4463 20.4121 14.5157 20.3595 14.5836C20.2937 14.6687 20.2257 14.7515 20.1556 14.8317C20.1003 14.895 20.0437 14.9568 19.9859 15.017C19.8683 15.1395 19.7457 15.2553 19.6183 15.3645C19.5475 15.4252 19.4753 15.4837 19.4017 15.5402C19.3154 15.6063 19.2275 15.6695 19.1377 15.7297C19.0807 15.7679 19.0231 15.8049 18.9649 15.8406C18.9043 15.8778 18.8429 15.9138 18.7807 15.9485C18.6545 16.0188 18.5255 16.0837 18.3937 16.1431C18.2794 16.1947 18.1632 16.242 18.0451 16.2851C17.9174 16.3317 17.7877 16.3732 17.6561 16.4097C17.4596 16.4641 17.2602 16.5071 17.0587 16.5383C16.9125 16.5609 16.7647 16.5775 16.6152 16.5881C16.4586 16.5991 16.3004 16.6034 16.1407 16.6009C15.966 16.5982 15.7897 16.5871 15.6121 16.5677C15.4819 16.5535 15.3511 16.5347 15.2198 16.5113C15.1058 16.491 14.9914 16.4672 14.8767 16.4399C14.8165 16.4255 14.756 16.4102 14.6956 16.3938C14.5274 16.3484 14.36 16.3016 14.1934 16.2535C14.1103 16.2295 14.0273 16.2052 13.9445 16.1804C13.8205 16.1435 13.6969 16.1057 13.5739 16.0673C13.4729 16.0357 13.3723 16.0037 13.272 15.9712C13.1764 15.9402 13.0812 15.9088 12.9861 15.8769C12.9211 15.8551 12.8562 15.8331 12.7914 15.8108C12.7125 15.7837 12.6338 15.7564 12.5554 15.7287C12.4992 15.7088 12.4431 15.6888 12.3871 15.6687C12.2761 15.6287 12.1654 15.5881 12.0552 15.547C11.991 15.523 11.9269 15.4988 11.8631 15.4745C11.7775 15.4418 11.6922 15.4087 11.6071 15.3754C11.5168 15.3399 11.4268 15.3041 11.3371 15.2678C11.2787 15.2442 11.2204 15.2205 11.1622 15.1965C11.0898 15.1667 11.0174 15.1366 10.9453 15.1061C10.8895 15.0827 10.834 15.059 10.7785 15.0353C10.7204 15.0103 10.6626 14.9853 10.6047 14.96C10.5546 14.9381 10.5044 14.916 10.4545 14.8939C10.4087 14.8736 10.3629 14.8532 10.3173 14.8326C10.2709 14.8118 10.2247 14.7908 10.1785 14.7697C10.1305 14.7479 10.0828 14.7259 10.0351 14.7039C9.9748 14.6759 9.91462 14.6478 9.85454 14.6195C9.79154 14.5897 9.72871 14.5598 9.66597 14.5297C9.59868 14.4974 9.53157 14.4648 9.46462 14.432C9.40754 14.404 9.35062 14.3758 9.29371 14.3475C6.29964 12.8537 3.59598 10.8378 1.30977 8.39462C1.28472 8.36788 1.25223 8.34937 1.21649 8.34131C1.18077 8.33334 1.14346 8.33625 1.10941 8.34971C1.07537 8.36325 1.04618 8.38665 1.02561 8.41691C1.00506 8.44725 0.994089 8.48299 0.994141 8.51968L0.998992 17.1299V17.8285C0.998426 18.0284 1.04725 18.2253 1.14112 18.4017C1.235 18.5782 1.37102 18.7287 1.53709 18.8399C3.73197 20.2989 6.30995 21.0754 8.94554 21.0711Z" fill="#3370FF"/>
</svg>
