<svg width="24" height="24" viewBox="0 0 24 24" fill="none" xmlns="http://www.w3.org/2000/svg">
<path d="M20.0478 16.9511C19.6942 17.3039 18.9869 17.832 17.7483 17.832H10.1425C12.442 15.6301 14.3879 13.7801 14.5647 13.6033C14.7415 13.4273 15.1832 12.9864 15.6256 12.6344C16.5105 11.8414 17.2178 11.7534 17.8371 11.7534C18.7212 11.7534 19.4285 12.1055 20.0478 12.6336C21.2864 13.7794 21.2864 15.8053 20.0478 16.9511ZM21.5512 11.2245C21.0884 10.7249 20.5275 10.3262 19.9036 10.0533C19.2797 9.78045 18.6061 9.63929 17.9251 9.63867C16.6874 9.63867 15.6256 10.0795 14.6527 10.7845C14.2991 11.1365 13.7686 11.4886 13.3261 12.0175C12.9725 12.3703 5.3667 19.7707 5.3667 19.7707C5.80836 19.8588 6.33962 19.8588 6.78129 19.8588H16.4217C17.129 19.8588 17.6603 19.8588 18.19 19.7707C19.4083 19.6812 20.5611 19.1847 21.4632 18.3609C23.4971 16.423 23.4971 13.1632 21.5512 11.2245Z" fill="#00A3FF"/>
<path d="M9.16993 10.6956C8.197 9.99153 7.22407 9.63867 6.07433 9.63867C5.39333 9.63929 4.71979 9.78045 4.09585 10.0533C3.47192 10.3262 2.91102 10.7249 2.44825 11.2245C1.50437 12.1955 0.983742 13.501 1.00039 14.8551C1.01703 16.2091 1.56959 17.5014 2.53706 18.4489C3.42118 19.2419 4.3053 19.6827 5.36703 19.7707L7.4009 17.832H6.25115C5.1014 17.7448 4.39411 17.3919 3.95165 16.9519C3.36585 16.3738 3.02885 15.5898 3.01241 14.767C2.99597 13.9441 3.30139 13.1474 3.86363 12.5463C4.48212 11.9294 5.19021 11.6654 6.07433 11.6654C6.60559 11.6654 7.4009 11.7526 8.197 12.5456C8.55065 12.8984 9.52357 13.6033 9.87801 13.9562H9.96523L11.2926 12.6344V12.5463C10.6741 11.9294 9.7004 11.1365 9.16993 10.6956Z" fill="#00C8DC"/>
<path d="M18.4557 8.49354C17.9654 7.17614 17.0844 6.03991 15.9306 5.23688C14.7769 4.43385 13.4054 4.00231 11.9997 4C8.55044 4 5.80849 6.55482 5.27881 9.72654C5.54444 9.72654 5.81007 9.63932 6.16372 9.63932C6.51737 9.63932 6.95903 9.72654 7.31347 9.72654C7.75513 7.52378 9.70098 5.93792 12.0005 5.93792C13.9455 5.93792 15.6266 7.0845 16.4219 8.75758C16.4219 8.75758 16.5107 8.8456 16.5107 8.75758C17.1292 8.66957 17.8372 8.49354 18.4557 8.49354C18.4557 8.58076 18.4557 8.58076 18.4557 8.49354Z" fill="#006EFF"/>
</svg>
