<svg width="97" height="96" viewBox="0 0 97 96" fill="none" xmlns="http://www.w3.org/2000/svg">
<path fill-rule="evenodd" clip-rule="evenodd" d="M76.6096 54.0704C77.7897 54.0485 78.9517 54.3645 79.9665 54.9818C80.9821 55.5996 81.8098 56.4947 82.3594 57.5657C82.7503 58.3184 82.9446 59.1618 82.9243 60.0137C82.9041 60.8656 82.6701 61.6983 82.2438 62.4306C81.635 63.4907 80.7625 64.3665 79.7146 64.9664C78.6679 65.5657 77.4845 65.8677 76.2857 65.8404H66.0349C64.7636 65.8162 63.5053 66.1161 62.3716 66.7144C61.2377 67.3127 60.2627 68.1914 59.534 69.2741L59.5251 69.2869C58.9614 70.0703 58.6334 71.0099 58.5844 71.9877C58.5355 72.9648 58.7674 73.9341 59.2496 74.7737C59.9343 75.9401 60.9044 76.8971 62.0602 77.5492C63.2164 78.2016 64.518 78.5261 65.8332 78.4911L65.8465 78.4908L83.8934 78.491C84.1696 78.491 84.3934 78.7148 84.3934 78.991C84.3934 79.2671 84.1696 79.491 83.8934 79.491H65.853C64.3576 79.5295 62.8796 79.1598 61.5687 78.4202C60.2561 77.6795 59.1585 76.5948 58.3859 75.2778L58.3837 75.274C57.8043 74.2662 57.5272 73.1055 57.5857 71.9377C57.6441 70.7724 58.0341 69.6494 58.7087 68.7093C59.5277 67.4947 60.625 66.5054 61.9049 65.83C63.1857 65.1541 64.6091 64.8139 66.0491 64.8404H76.3035C77.3205 64.8645 78.3263 64.609 79.2178 64.0986C80.1094 63.5881 80.8554 62.8406 81.3773 61.9314L81.3789 61.9286C81.7199 61.3432 81.9083 60.6751 81.9246 59.99C81.9409 59.3048 81.7844 58.6278 81.4714 58.0255L81.4702 58.0231C81.0033 57.113 80.3023 56.3566 79.4467 55.8361C78.5914 55.3158 77.6143 55.0512 76.624 55.0703L76.6144 55.0705L55.7139 55.0704C55.4377 55.0704 55.2139 54.8465 55.2139 54.5704C55.2139 54.2943 55.4377 54.0704 55.7139 54.0704H76.6096Z" fill="#D4D6DC"/>
<path d="M56.2147 62.8075C57.6726 63.5417 57.6726 64.8002 56.2147 65.6393L35.4913 76.757C34.6708 77.1204 33.7842 77.3081 32.8878 77.3081C31.9915 77.3081 31.1049 77.1204 30.2844 76.757L9.45673 65.6393C7.9988 64.9051 7.9988 63.6465 9.45673 62.8075L30.1801 51.6898C31.0007 51.3263 31.8872 51.1387 32.7836 51.1387C33.68 51.1387 34.5665 51.3263 35.3871 51.6898L56.2147 62.8075Z" fill="#D3D5DA"/>
<path d="M34.3186 34.0314L56.3725 46.8487C56.1199 46.7328 55.8127 46.7592 55.5365 46.7869C55.2603 46.8145 54.9964 46.9152 54.7714 47.0789L32.7461 34.2411C32.9662 34.0689 33.2278 33.9588 33.5041 33.9219C33.7804 33.8851 34.0615 33.9228 34.3186 34.0314Z" fill="url(#paint0_linear_3086_979)"/>
<path d="M32.787 69.447L10.7617 56.5567C10.538 56.3933 10.3607 56.1737 10.2474 55.9197C10.1341 55.6658 10.0889 55.3864 10.1161 55.1094L32.1414 67.9996C32.1141 68.2766 32.1594 68.556 32.2727 68.8099C32.386 69.0638 32.5633 69.2835 32.787 69.447Z" fill="#4672ED"/>
<path d="M32.1281 68.0093L10.1029 55.1191L10.082 50.0322L32.1073 62.9224L32.1281 68.0093Z" fill="url(#paint1_linear_3086_979)"/>
<path d="M34.2925 59.0928L12.2568 46.1921L32.8346 34.2354L54.8598 47.1256L34.2925 59.0928Z" fill="#5880ED"/>
<path d="M32.1177 62.9713L10.082 50.0392C10.1226 49.2648 10.3436 48.511 10.7272 47.8386C11.1107 47.1663 11.646 46.5943 12.2898 46.1689L34.2121 59.0232C33.5611 59.4507 33.1342 60.0649 32.7502 60.7454C32.3661 61.426 32.1493 62.1892 32.1177 62.9713Z" fill="url(#paint2_linear_3086_979)"/>
<path d="M34.4075 20.2031L56.4327 33.1352C56.1802 33.0193 55.9016 32.9729 55.6254 33.0005C55.3492 33.0281 55.0852 33.1289 54.8602 33.2925L32.835 20.4023C33.0561 20.2318 33.3181 20.1236 33.5944 20.0886C33.8707 20.0535 34.1513 20.0931 34.4075 20.2031Z" fill="url(#paint3_linear_3086_979)"/>
<path d="M32.7411 55.611L10.7158 42.7208C10.4921 42.5574 10.3148 42.3377 10.2015 42.0838C10.0882 41.8298 10.043 41.5505 10.0702 41.2734L32.0955 54.1636C32.0682 54.4407 32.1135 54.72 32.2268 54.974C32.34 55.2279 32.5174 55.4476 32.7411 55.611Z" fill="#4672ED"/>
<path d="M32.7411 55.611L10.7158 42.7208C10.4921 42.5574 10.3148 42.3377 10.2015 42.0838C10.0882 41.8298 10.043 41.5505 10.0702 41.2734L32.0955 54.1636C32.0682 54.4407 32.1135 54.72 32.2268 54.974C32.34 55.2279 32.5174 55.4476 32.7411 55.611Z" fill="#4771E7"/>
<path d="M32.0959 54.1741L10.0706 41.2734L10.0498 36.1865L32.075 49.0767L32.0959 54.1741Z" fill="url(#paint4_linear_3086_979)"/>
<path d="M34.2925 45.2168L12.2568 32.3161L32.8346 20.3594L54.8598 33.2496L34.2925 45.2168Z" fill="#5880ED"/>
<path d="M54.8284 33.2501C56.0573 32.5369 57.0466 33.1138 57.0466 34.5402V39.627C57.0077 40.4004 56.7874 41.1534 56.4036 41.8243C56.0198 42.4952 55.4836 43.0649 54.8388 43.4868L34.2611 55.454C33.0427 56.1672 32.043 55.5903 32.043 54.1639V49.0771C32.0793 48.3032 32.2987 47.5492 32.6826 46.8779C33.0666 46.2065 33.6042 45.6372 34.2507 45.2173L54.8284 33.2501Z" fill="url(#paint5_linear_3086_979)"/>
<path d="M32.0855 49.0768L10.0498 36.1866C10.0904 35.4123 10.3114 34.6584 10.6949 33.9861C11.0785 33.3137 11.6138 32.7417 12.2575 32.3164L34.2932 45.2171C33.6467 45.637 33.1092 46.2063 32.7252 46.8776C32.3412 47.549 32.1219 48.3029 32.0855 49.0768Z" fill="url(#paint6_linear_3086_979)"/>
<path d="M37.1927 48.4611L37.4321 48.5975C37.3632 48.5548 37.284 48.5322 37.2031 48.5322C37.1222 48.5322 37.0089 48.5548 36.94 48.5975L36.6797 48.488C36.7486 48.4453 36.8591 48.4102 36.94 48.4102C37.0209 48.4102 37.1238 48.4185 37.1927 48.4611Z" fill="white"/>
<path d="M36.4804 50.1659L36.241 50.0296C36.1768 49.9815 36.1258 49.9178 36.093 49.8444C36.0602 49.7709 36.0466 49.6903 36.0535 49.61C36.0658 49.3809 36.1317 49.158 36.2457 48.9593C36.3597 48.7607 36.5185 48.5919 36.7095 48.4668L36.9491 48.6032C36.7581 48.7283 36.5991 48.897 36.4851 49.0957C36.3712 49.2943 36.3054 49.5173 36.2931 49.7464C36.2852 49.8267 36.2982 49.9077 36.3311 49.9813C36.364 50.055 36.4155 50.1186 36.4804 50.1659Z" fill="white"/>
<path d="M36.9275 48.6046C37.2815 48.3948 37.573 48.6046 37.573 48.9822C37.5611 49.2102 37.4965 49.4322 37.3844 49.6307C37.2723 49.8291 37.1159 49.9985 36.9275 50.1254C36.563 50.3352 36.2715 50.1254 36.2715 49.7478C36.2838 49.5187 36.3496 49.2958 36.4635 49.0971C36.5775 48.8985 36.7365 48.7297 36.9275 48.6046Z" fill="#F0F0F0"/>
<path d="M43.5765 44.8748C43.6432 44.8359 43.7269 44.884 43.7269 44.9612V45.8204C43.7269 45.856 43.708 45.8889 43.6772 45.9068L43.0859 46.2517C43.0193 46.2906 42.9355 46.2425 42.9355 46.1653V45.306C42.9355 45.2705 42.9544 45.2376 42.9852 45.2197L43.5765 44.8748Z" fill="#F0F0F0"/>
<path d="M44.8369 44.1423C44.9035 44.1028 44.9879 44.1508 44.9879 44.2283V45.086C44.9879 45.1216 44.969 45.1545 44.9382 45.1724L44.2011 45.6014C44.1344 45.6402 44.0508 45.5922 44.0508 45.515V44.6656C44.0508 44.6303 44.0694 44.5976 44.0998 44.5796L44.8369 44.1423Z" fill="#F0F0F0"/>
<path d="M51.2049 38.8105V42.298L50.5215 42.6914V39.2039L51.2049 38.8105Z" fill="#BCCBFF"/>
<path d="M52.7967 37.9092V41.3966L52.1133 41.79V38.3025L52.7967 37.9092Z" fill="#BCCBFF"/>
<path d="M54.382 36.9961V40.4835L53.7061 40.8769V37.3895L54.382 36.9961Z" fill="#BCCBFF"/>
<path fill-rule="evenodd" clip-rule="evenodd" d="M74.6841 51.8067C75.8616 51.7854 77.0219 52.0929 78.0361 52.695C79.0513 53.2976 79.8803 54.1716 80.4314 55.2194C80.8236 55.9565 81.019 56.7833 80.9986 57.6189C80.9783 58.4544 80.743 59.2705 80.3154 59.9874C79.7052 61.0241 78.8317 61.8791 77.7844 62.4642C76.7383 63.0487 75.5566 63.3427 74.3602 63.316H64.1095C62.8359 63.2925 61.576 63.5856 60.4414 64.1698C59.3069 64.754 58.3326 65.6113 57.6051 66.666L57.5959 66.6789C57.0337 67.4413 56.7074 68.3545 56.6587 69.3037C56.61 70.2522 56.8406 71.1939 57.3212 72.0104C58.0045 73.1464 58.9736 74.0798 60.1299 74.7164C61.2868 75.3534 62.5902 75.6707 63.9078 75.6365L63.9208 75.6361L86.1237 75.6363C86.3998 75.6363 86.6237 75.8602 86.6237 76.1363C86.6237 76.4124 86.3998 76.6363 86.1237 76.6363H63.9272C62.4342 76.6739 60.9578 76.3138 59.6476 75.5924C58.3355 74.87 57.237 73.8112 56.463 72.5237L56.4607 72.5199C55.8797 71.5338 55.6013 70.397 55.66 69.2525C55.7187 68.1106 56.1104 67.0112 56.7864 66.0918C57.6065 64.905 58.7045 63.9394 59.9836 63.2808C61.2637 62.6216 62.6855 62.2902 64.1233 62.316H74.3775C75.397 62.3397 76.4045 62.0897 77.2967 61.5913C78.1889 61.0928 78.9338 60.3638 79.4543 59.4789L79.456 59.4762C79.7956 58.9072 79.9828 58.2588 79.9989 57.5945C80.0151 56.9303 79.8597 56.2734 79.5481 55.6882L79.5468 55.6859C79.0814 54.8005 78.3816 54.063 77.5257 53.5549C76.6698 53.0468 75.6909 52.7879 74.6981 52.8066L74.6887 52.8068L57.0859 52.8067C56.8098 52.8067 56.5859 52.5828 56.5859 52.3067C56.5859 52.0306 56.8098 51.8067 57.0859 51.8067H74.6841Z" fill="black"/>
<path d="M54.8284 47.0216C56.0573 46.3084 57.0466 46.8852 57.0466 48.3117V53.3985C57.0077 54.1718 56.7874 54.9248 56.4036 55.5958C56.0198 56.2667 55.4836 56.8364 54.8388 57.2582L34.2611 69.2255C33.0427 69.9387 32.043 69.3618 32.043 67.9354V62.8485C32.0811 62.0736 32.301 61.3188 32.6848 60.6461C33.0686 59.9733 33.6052 59.4018 34.2507 58.9783L54.8284 47.0216Z" fill="url(#paint7_linear_3086_979)"/>
<path d="M37.1927 62.0803L37.4321 62.2166C37.3632 62.174 37.284 62.1514 37.2031 62.1514C37.1222 62.1514 37.0089 62.174 36.94 62.2166L36.6797 62.1071C36.7486 62.0645 36.8591 62.0293 36.94 62.0293C37.0209 62.0293 37.1238 62.0376 37.1927 62.0803Z" fill="white"/>
<path d="M36.4804 63.786L36.241 63.6497C36.1768 63.6017 36.1258 63.5379 36.093 63.4645C36.0602 63.391 36.0466 63.3104 36.0535 63.2301C36.0658 63.001 36.1317 62.7781 36.2457 62.5795C36.3597 62.3808 36.5185 62.212 36.7095 62.0869L36.9491 62.2233C36.7581 62.3484 36.5991 62.5171 36.4851 62.7158C36.3712 62.9144 36.3054 63.1374 36.2931 63.3665C36.2852 63.4468 36.2982 63.5279 36.3311 63.6015C36.364 63.6751 36.4155 63.7387 36.4804 63.786Z" fill="white"/>
<path d="M36.9275 62.2237C37.2815 62.014 37.573 62.2237 37.573 62.6013C37.5611 62.8293 37.4965 63.0514 37.3844 63.2498C37.2723 63.4483 37.1159 63.6177 36.9275 63.7446C36.563 63.9543 36.2715 63.7446 36.2715 63.367C36.2838 63.1379 36.3496 62.9149 36.4635 62.7163C36.5775 62.5176 36.7365 62.3489 36.9275 62.2237Z" fill="#F0F0F0"/>
<path d="M51.2078 52.9521V56.4396L50.5244 56.833V53.3455L51.2078 52.9521Z" fill="#BCCBFF"/>
<path d="M52.7996 52.0508V55.5382L52.1162 55.9316V52.4442L52.7996 52.0508Z" fill="#BCCBFF"/>
<path d="M54.3849 51.1387V54.6261L53.709 55.0195V51.5321L54.3849 51.1387Z" fill="#BCCBFF"/>
<path d="M44.6605 58.2693C44.7272 58.2305 44.8109 58.2785 44.8109 58.3557V59.215C44.8109 59.2505 44.792 59.2834 44.7612 59.3013L44.1699 59.6462C44.1032 59.6851 44.0195 59.637 44.0195 59.5598V58.7006C44.0195 58.665 44.0384 58.6321 44.0692 58.6142L44.6605 58.2693Z" fill="#F0F0F0"/>
<path d="M43.6086 58.8872C43.6752 58.8484 43.7588 58.8965 43.7588 58.9737V59.8329C43.7588 59.8686 43.7398 59.9016 43.7089 59.9195L40.2126 61.9433C40.1459 61.9819 40.0625 61.9338 40.0625 61.8568V61.0074C40.0625 60.9718 40.0814 60.9389 40.1122 60.921L43.6086 58.8872Z" fill="#F0F0F0"/>
<path d="M45.9206 57.5445C45.9872 57.5057 46.0709 57.5538 46.0709 57.6309V58.4804C46.0709 58.5157 46.0523 58.5484 46.0219 58.5664L45.2848 59.0036C45.2181 59.0432 45.1338 58.9951 45.1338 58.9176V58.0599C45.1338 58.0243 45.1527 57.9914 45.1835 57.9735L45.9206 57.5445Z" fill="#F0F0F0"/>
<path d="M67.4664 56.1266C67.6165 55.6941 67.8964 55.3193 68.2673 55.0541C68.6382 54.7889 69.0818 54.6465 69.5366 54.6465C69.9915 54.6465 70.435 54.7889 70.8059 55.0541C71.1769 55.3193 71.4568 55.6941 71.6068 56.1266L76.7126 64.928C77.8582 66.8894 76.9581 68.4881 74.6834 68.4881H64.3735C62.1151 68.4881 61.215 66.8399 62.3442 64.928L67.4664 56.1266Z" fill="white"/>
<path d="M70.4286 59.0274V58.9285C70.4286 58.8146 70.406 58.7018 70.3623 58.5967C70.3185 58.4916 70.2542 58.3964 70.1735 58.3166C70.0927 58.2368 69.997 58.174 69.8918 58.1319C69.7867 58.0898 69.6743 58.0693 69.5612 58.0715C69.3355 58.0715 69.1191 58.1617 68.9595 58.3225C68.7999 58.4832 68.7102 58.7012 68.7102 58.9285L68.8902 63.0655C68.8902 63.2447 68.9609 63.4166 69.0868 63.5434C69.2126 63.6701 69.3832 63.7413 69.5612 63.7413C69.7391 63.7413 69.9098 63.6701 70.0356 63.5434C70.1615 63.4166 70.2322 63.2447 70.2322 63.0655L70.4286 59.0274ZM67.4664 56.1266C67.6165 55.6941 67.8964 55.3193 68.2673 55.0541C68.6382 54.7889 69.0818 54.6465 69.5366 54.6465C69.9915 54.6465 70.435 54.7889 70.8059 55.0541C71.1769 55.3193 71.4568 55.6941 71.6068 56.1266L76.7127 64.928C77.8582 66.8894 76.9581 68.4881 74.6834 68.4881H64.3735C62.1151 68.4881 61.215 66.8399 62.3442 64.928L67.4664 56.1266ZM69.5612 66.5432C69.7912 66.5432 70.0118 66.4512 70.1745 66.2874C70.3371 66.1236 70.4286 65.9013 70.4286 65.6697C70.4286 65.5557 70.406 65.4429 70.3623 65.3378C70.3185 65.2328 70.2542 65.1375 70.1735 65.0577C70.0927 64.9779 69.997 64.9152 69.8918 64.8731C69.7867 64.831 69.6743 64.8104 69.5612 64.8126C69.3355 64.8126 69.1191 64.9029 68.9595 65.0637C68.7999 65.2244 68.7102 65.4424 68.7102 65.6697C68.708 65.7836 68.7285 65.8969 68.7703 66.0027C68.8121 66.1086 68.8745 66.205 68.9537 66.2864C69.0329 66.3677 69.1275 66.4324 69.2318 66.4765C69.3361 66.5206 69.4481 66.5432 69.5612 66.5432Z" fill="#FF4747"/>
<path d="M33.2508 43.6233V43.8225C33.2473 43.8769 33.229 43.9292 33.1978 43.9737C33.1665 44.0181 33.1235 44.053 33.0738 44.0743C32.9414 44.1416 32.7952 44.1766 32.6469 44.1766C32.4986 44.1766 32.3523 44.1416 32.22 44.0743C32.1702 44.053 32.1273 44.0181 32.096 43.9737C32.0648 43.9292 32.0464 43.8769 32.043 43.8225V43.5918C32.0475 43.6458 32.0663 43.6977 32.0974 43.7419C32.1286 43.7862 32.1709 43.8213 32.22 43.8435C32.3523 43.9108 32.4986 43.9459 32.6469 43.9459C32.7952 43.9459 32.9414 43.9108 33.0738 43.8435C33.1193 43.8248 33.1594 43.7948 33.1904 43.7563C33.2213 43.7178 33.2421 43.672 33.2508 43.6233Z" fill="#EFEFEF"/>
<path d="M33.2518 43.6145C33.2523 43.4176 32.9824 43.2572 32.6488 43.2563C32.3153 43.2553 32.0445 43.4142 32.044 43.6111C32.0434 43.8081 32.3133 43.9685 32.6469 43.9695C32.9804 43.9704 33.2512 43.8115 33.2518 43.6145Z" fill="white"/>
<path d="M53.3797 32.8518V33.0511C53.3762 33.1054 53.3579 33.1577 53.3267 33.2022C53.2954 33.2467 53.2525 33.2815 53.2027 33.3028C53.0703 33.3701 52.9241 33.4051 52.7758 33.4051C52.6275 33.4051 52.4813 33.3701 52.3489 33.3028C52.2991 33.2815 52.2562 33.2467 52.2249 33.2022C52.1937 33.1577 52.1753 33.1054 52.1719 33.0511V32.8203C52.1764 32.8744 52.1952 32.9262 52.2263 32.9705C52.2575 33.0147 52.2998 33.0498 52.3489 33.072C52.4813 33.1393 52.6275 33.1744 52.7758 33.1744C52.9241 33.1744 53.0703 33.1393 53.2027 33.072C53.2482 33.0533 53.2883 33.0233 53.3193 32.9848C53.3502 32.9463 53.371 32.9006 53.3797 32.8518Z" fill="#EFEFEF"/>
<path d="M53.3807 32.8431C53.3812 32.6461 53.1113 32.4857 52.7777 32.4848C52.4442 32.4839 52.1734 32.6427 52.1729 32.8397C52.1723 33.0366 52.4422 33.197 52.7758 33.198C53.1093 33.1989 53.3801 33.04 53.3807 32.8431Z" fill="white"/>
<path d="M14.9871 32.8518V33.0511C14.9837 33.1054 14.9653 33.1577 14.9341 33.2022C14.9028 33.2467 14.8599 33.2815 14.8101 33.3028C14.6777 33.3701 14.5315 33.4051 14.3832 33.4051C14.2349 33.4051 14.0887 33.3701 13.9563 33.3028C13.9065 33.2815 13.8636 33.2467 13.8324 33.2022C13.8011 33.1577 13.7827 33.1054 13.7793 33.0511V32.8203C13.7838 32.8744 13.8026 32.9262 13.8338 32.9705C13.8649 33.0147 13.9072 33.0498 13.9563 33.072C14.0887 33.1393 14.2349 33.1744 14.3832 33.1744C14.5315 33.1744 14.6777 33.1393 14.8101 33.072C14.8556 33.0533 14.8958 33.0233 14.9267 32.9848C14.9577 32.9463 14.9784 32.9006 14.9871 32.8518Z" fill="#EFEFEF"/>
<path d="M14.9881 32.8431C14.9886 32.6461 14.7187 32.4857 14.3852 32.4848C14.0516 32.4839 13.7808 32.6427 13.7803 32.8397C13.7797 33.0366 14.0497 33.197 14.3832 33.198C14.7167 33.1989 14.9876 33.04 14.9881 32.8431Z" fill="white"/>
<path d="M34.2918 21.55V21.7493C34.2883 21.8037 34.27 21.856 34.2388 21.9004C34.2075 21.9449 34.1646 21.9797 34.1148 22.001C33.9824 22.0683 33.8362 22.1034 33.6879 22.1034C33.5396 22.1034 33.3934 22.0683 33.261 22.001C33.2112 21.9797 33.1683 21.9449 33.137 21.9004C33.1058 21.856 33.0874 21.8037 33.084 21.7493V21.5186C33.0885 21.5726 33.1073 21.6244 33.1384 21.6687C33.1696 21.713 33.2119 21.748 33.261 21.7703C33.3934 21.8376 33.5396 21.8726 33.6879 21.8726C33.8362 21.8726 33.9824 21.8376 34.1148 21.7703C34.1603 21.7516 34.2004 21.7216 34.2314 21.6831C34.2623 21.6446 34.2831 21.5988 34.2918 21.55Z" fill="#EFEFEF"/>
<path d="M34.2928 21.5413C34.2933 21.3443 34.0234 21.184 33.6899 21.183C33.3563 21.1821 33.0855 21.341 33.085 21.5379C33.0844 21.7348 33.3543 21.8953 33.6879 21.8962C34.0214 21.8972 34.2922 21.7382 34.2928 21.5413Z" fill="white"/>
<path d="M42.5246 45.4927C42.5912 45.4539 42.6748 45.502 42.6748 45.5791V46.4281C42.6748 46.4637 42.656 46.4966 42.6252 46.5145L39.1376 48.5489C39.0714 48.5876 38.988 48.5403 38.9873 48.4635L38.9791 47.6136C38.9787 47.5776 38.9977 47.5442 39.0288 47.5261L42.5246 45.4927Z" fill="#F0F0F0"/>
<defs>
<linearGradient id="paint0_linear_3086_979" x1="51.561" y1="46.2757" x2="56.3922" y2="43.2175" gradientUnits="userSpaceOnUse">
<stop stop-color="#5880ED"/>
<stop offset="1" stop-color="#4672ED"/>
</linearGradient>
<linearGradient id="paint1_linear_3086_979" x1="10.082" y1="59.0208" x2="32.1281" y2="59.0208" gradientUnits="userSpaceOnUse">
<stop stop-color="#3462EC"/>
<stop offset="1" stop-color="#4672ED"/>
</linearGradient>
<linearGradient id="paint2_linear_3086_979" x1="23.9248" y1="53.4465" x2="21.2099" y2="57.4677" gradientUnits="userSpaceOnUse">
<stop stop-color="#5880ED"/>
<stop offset="1" stop-color="#3B68ED"/>
</linearGradient>
<linearGradient id="paint3_linear_3086_979" x1="44.6339" y1="30.1245" x2="49.9777" y2="22.1877" gradientUnits="userSpaceOnUse">
<stop stop-color="#5880ED"/>
<stop offset="1" stop-color="#4672ED"/>
</linearGradient>
<linearGradient id="paint4_linear_3086_979" x1="16.7085" y1="43.3814" x2="23.6677" y2="50.6332" gradientUnits="userSpaceOnUse">
<stop stop-color="#3F6BED"/>
<stop offset="1" stop-color="#4672ED"/>
</linearGradient>
<linearGradient id="paint5_linear_3086_979" x1="32.043" y1="47.082" x2="58.3714" y2="36.6669" gradientUnits="userSpaceOnUse">
<stop stop-color="#386DE9"/>
<stop offset="1" stop-color="#436EE7"/>
</linearGradient>
<linearGradient id="paint6_linear_3086_979" x1="25.0419" y1="38.8535" x2="21.721" y2="44.0515" gradientUnits="userSpaceOnUse">
<stop offset="0.433148" stop-color="#5880ED"/>
<stop offset="0.899025" stop-color="#3C6AED"/>
</linearGradient>
<linearGradient id="paint7_linear_3086_979" x1="57.0463" y1="53.3814" x2="36.0311" y2="65.9199" gradientUnits="userSpaceOnUse">
<stop stop-color="#426EE7"/>
<stop offset="1" stop-color="#366CE9"/>
</linearGradient>
</defs>
</svg>
