<svg width="96" height="95" viewBox="0 0 96 95" fill="none" xmlns="http://www.w3.org/2000/svg">
<path d="M12.4931 60.3929L21.2564 65.9777L44.57 80.0944L78.3671 54.7716L56.799 43.3617L51.7735 46.4937L42.2069 41.2148" fill="#D4D6DC"/>
<path d="M42.3633 29.0003C39.3181 30.7572 36.5506 32.824 35.1719 35L59.7305 48.7461C59.8229 48.6166 62.3628 45.8071 68.4511 42.2934C71.4963 40.5345 74.8937 39.2494 80.2803 36.9236L55.7461 23.1113C55.3804 23.2285 48.4516 25.4846 42.3633 29.0003Z" fill="#FDF9F3"/>
<path d="M40.0927 27.3582C37.7646 29.9925 35.8125 32.7993 35.1961 35.3L59.4796 48.7383C66.8172 41.1808 62.2192 42.095 66.8754 36.8285C69.2034 34.1943 69.9962 35.9414 74.5332 32.2942L51.4835 20.9999C51.1752 21.2362 44.7488 22.0898 40.0927 27.3582Z" fill="white"/>
<path d="M59.75 57.0234C59.8425 56.894 61.604 54.5767 67.6964 51.063C71.0539 49.158 76.6844 45.5744 80.2871 44.1881L80.2864 36.9062C76.684 38.2935 71.0297 40.7836 67.6718 42.6877C61.5835 46.2014 60.5728 48.1455 59.7227 48.7344" fill="url(#paint0_linear_3086_1220)"/>
<path d="M23.3281 39.1623L23.1781 39.2506C17.739 42.4438 15.8815 46.6355 15.7808 46.8533L41.0547 61.541C46.9725 56.1985 50.2376 51.5876 53.6629 49.6109C54.0223 49.4016 54.3966 49.2189 54.7827 49.0643C57.1026 48.1437 59.5951 48.7109 59.7266 48.7417L35.3157 34.9746C30.9986 35.8931 26.7657 37.1794 23.3281 39.1623Z" fill="#FDF9F3"/>
<path d="M15.7773 46.8477L15.8041 55.2738L41.0801 69.9614L41.0586 61.5391L15.7773 46.8477Z" fill="#ECDBBB"/>
<path fill-rule="evenodd" clip-rule="evenodd" d="M57.504 48.541L57.5266 56.9163H58.1143L58.0896 48.541H57.504ZM56.9942 56.9451L56.9716 48.5698C57.1524 48.5533 57.3312 48.541 57.5038 48.541L57.5264 56.9163C57.3558 56.9204 57.1771 56.9287 56.9942 56.9451ZM56.462 48.6248L56.462 48.628C56.2958 48.6527 56.1275 48.6814 55.9592 48.7163L55.9592 48.7194C55.7773 48.7558 55.5934 48.7981 55.4095 48.8462L55.4095 48.8535C55.2051 48.9129 55.0008 48.9824 54.7964 49.058L54.7964 49.0605H54.7852C54.399 49.2151 54.0248 49.3978 53.6653 49.6071C51.6891 50.7476 49.7663 52.7655 47.3566 55.2944C45.5896 57.1488 43.5607 59.2779 41.0571 61.5372L41.0797 69.9125C43.5805 67.6549 45.6079 65.5279 47.374 63.6751L47.374 63.6751C49.7871 61.1435 51.7121 59.1238 53.69 57.9824C54.0489 57.7736 54.4225 57.5909 54.8078 57.4359H54.8242L54.8242 57.4321C55.0286 57.3504 55.2331 57.281 55.4375 57.2278L55.4375 57.221C55.6251 57.1719 55.8106 57.1269 55.9961 57.0921L55.9961 57.0887C56.1618 57.0551 56.3255 57.0272 56.4873 57.0032L56.4873 57C56.6597 56.9754 56.8279 56.957 56.9941 56.9447L56.9715 48.5693C56.8051 48.5817 56.6346 48.6002 56.462 48.6248ZM58.1146 56.9183L58.0899 48.543C58.3324 48.5512 58.5502 48.5676 58.7557 48.5882L58.7783 56.9635L58.741 56.9596C58.5514 56.94 58.342 56.9183 58.1146 56.9183ZM58.756 48.5879L58.7786 56.9632C59.0847 56.994 59.3334 57.031 59.5039 57.0618L59.5039 57.0566C59.5779 57.0403 59.5863 57.0384 59.5947 57.0382C59.6053 57.038 59.616 57.0403 59.7578 57.0195L59.7288 48.7329C59.9111 48.7625 59.8169 48.7466 59.6839 48.7242C59.6151 48.7126 59.5359 48.6992 59.4793 48.6895L59.4792 48.6886C59.3108 48.6578 59.0683 48.6187 58.756 48.5879Z" fill="#C0AE92"/>
<path d="M59.7188 48.7266L35.9274 39.9679C31.5216 37.5332 23.8495 41.652 19.7676 43.681L41.8099 56.8066C43.4047 54.4999 45.156 51.0278 48.5938 49.5541C52.1537 48.0282 57.6602 48.3125 59.7188 48.7266Z" fill="#F8EDDA"/>
<path d="M59.7266 48.7344L35.5566 35.2043C31.1508 32.7695 21.8856 36.2188 17.8037 38.2478L42.6228 53.3926C43.9807 51.4285 46.6093 49.7213 49.2295 48.8991C51.2006 48.2805 53.3702 48.1818 55.3292 48.2371C56.9989 48.2371 58.6055 48.4648 59.7266 48.7344Z" fill="white"/>
<path d="M35.5508 34.1875L35.1875 35L59.7941 48.6836L60.2906 48.2286L35.5508 34.1875Z" fill="#FEF9EF"/>
<path d="M63.9023 42.8092C63.7594 43.292 61.5015 46.7059 60.2578 48.2578L65.016 44.2839C64.7204 43.6065 64.0469 42.321 63.9023 42.8092Z" fill="#F8EDDA"/>
<path d="M47.6073 30.0783C50.4115 28.2811 55.0701 28.0665 58.0107 29.5978C60.9513 31.1291 61.0625 33.8251 58.2533 35.632C55.4442 37.4389 50.7897 37.6454 47.8491 36.1141C44.9085 34.5829 44.8007 31.8764 47.6073 30.0783ZM53.8534 31.6792C53.795 31.5257 53.7063 31.3854 53.5927 31.2668C53.479 31.1482 53.3427 31.0536 53.1919 30.9886C52.6981 30.7324 52.143 30.618 51.5881 30.6582C50.9908 30.6886 50.4121 30.8765 49.9108 31.2026C49.345 31.564 49.088 31.9465 49.1602 32.3506C49.2323 32.7547 49.5309 33.0598 50.0981 33.3655L50.5831 33.0541C50.1509 32.8183 49.8913 32.5719 49.822 32.3119C49.7362 32.0129 49.9182 31.7321 50.3436 31.457C50.7034 31.2202 51.12 31.084 51.5502 31.0624C51.9542 31.0458 52.3555 31.1347 52.7146 31.3204C52.8254 31.3726 52.9243 31.4471 53.0049 31.5393C53.0855 31.6315 53.1463 31.7394 53.1832 31.8562C53.2089 32.0638 53.2184 32.2731 53.2119 32.4822C53.1831 32.7216 53.2275 32.964 53.3391 33.1777C53.4754 33.4102 53.68 33.595 53.9251 33.707L54.1711 33.8342L54.6627 33.5179L54.4199 33.3924C54.2149 33.2975 54.0462 33.1387 53.9389 32.9398C53.8629 32.7795 53.8385 32.5996 53.8691 32.4249C53.8813 32.1743 53.875 31.9232 53.8502 31.6735L53.8534 31.6792ZM56.1504 34.2223C56.1401 34.1709 56.1171 34.1229 56.0834 34.0827C56.0497 34.0425 56.0065 34.0114 55.9577 33.9922C55.8287 33.9269 55.6848 33.8968 55.5404 33.9048C55.3922 33.9114 55.2483 33.9563 55.1226 34.035C55.0742 34.0572 55.0325 34.0919 55.002 34.1356C54.9715 34.1793 54.9533 34.2304 54.9492 34.2835C54.9472 34.3742 55.006 34.4535 55.1346 34.52C55.2639 34.583 55.4079 34.6096 55.5512 34.5969C55.7002 34.5966 55.8464 34.557 55.9752 34.4822C56.023 34.457 56.0642 34.421 56.0954 34.377C56.1267 34.333 56.1472 34.2822 56.1552 34.2289" fill="#FF5E2F"/>
<defs>
<linearGradient id="paint0_linear_3086_1220" x1="63.2266" y1="51.7189" x2="89.1254" y2="37.4233" gradientUnits="userSpaceOnUse">
<stop stop-color="#C0AE92"/>
<stop offset="1" stop-color="#ECDBBB"/>
</linearGradient>
</defs>
</svg>
